<?xml version="1.0" encoding="utf-8"?>
<COLLADA xmlns="http://www.collada.org/2005/11/COLLADASchema" version="1.4.1" xmlns:xsi="http://www.w3.org/2001/XMLSchema-instance">
  <asset>
    <contributor>
      <author>Blender User</author>
      <authoring_tool>Blender 3.4.1 commit date:2022-12-19, commit time:17:00, hash:55485cb379f7</authoring_tool>
    </contributor>
    <created>2025-01-06T20:46:03</created>
    <modified>2025-01-06T20:46:03</modified>
    <unit name="meter" meter="1"/>
    <up_axis>Z_UP</up_axis>
  </asset>
  <library_effects>
    <effect id="Material_001-effect">
      <profile_COMMON>
        <technique sid="common">
          <lambert>
            <emission>
              <color sid="emission">0 0 0 1</color>
            </emission>
            <diffuse>
              <color sid="diffuse">0.4019688 0.4019688 0.4019688 1</color>
            </diffuse>
            <index_of_refraction>
              <float sid="ior">1.45</float>
            </index_of_refraction>
          </lambert>
        </technique>
      </profile_COMMON>
    </effect>
  </library_effects>
  <library_images/>
  <library_materials>
    <material id="Material_001-material" name="Material.001">
      <instance_effect url="#Material_001-effect"/>
    </material>
  </library_materials>
  <library_geometries>
    <geometry id="spot_stage-mesh" name="spot_stage">
      <mesh>
        <source id="spot_stage-mesh-positions">
          <float_array id="spot_stage-mesh-positions-array" count="192">-10600 9800 2500 -11000 10000 2500 -13000 10000 2500 -11000 14000 2500 -10600 14600 2500 -13000 14000 2500 -13800 14600 2500 -13800 9800 2500 -10200 9600 2400 -10600 9800 2400 -13800 9800 2400 -10600 14600 2400 -10200 15200 2400 -13800 14600 2400 -14600 15200 2400 -14600 9600 2400 -9400 9200 2200 -9800 9400 2200 -15400 9400 2200 -9800 15800 2200 -9400 16400 2200 -15400 15800 2200 -16200 16400 2200 -16200 9200 2200 -9000 9000 2100 -9400 9200 2100 -16200 9200 2100 -9400 16400 2100 -9000 17000 2100 -16200 16400 2100 -17000 17000 2100 -17000 9000 2100 -20000 20000 2000 -17000 17000 2000 -9000 17000 2000 -17000 9000 2000 -20000 -20000 2000 -9000 9000 2000 20000 -20000 2000 20000 20000 2000 20000 -20000 0 -20000 -20000 0 20000 20000 0 -20000 20000 0 -9800 9400 2300 -15400 9400 2300 -9800 15800 2300 -15400 15800 2300 -10200 9600 2300 -14600 9600 2300 -10200 15200 2300 -14600 15200 2300 -13000 10000 2600 -13000 14000 2600 -11000 10000 2600 -11000 14000 2600 -11400 10200 2600 -12200 10200 2600 -11400 13400 2600 -12200 13400 2600 -12200 10200 2700 -12200 13400 2700 -11400 10200 2700 -11400 13400 2700</float_array>
          <technique_common>
            <accessor source="#spot_stage-mesh-positions-array" count="64" stride="3">
              <param name="X" type="float"/>
              <param name="Y" type="float"/>
              <param name="Z" type="float"/>
            </accessor>
          </technique_common>
        </source>
        <source id="spot_stage-mesh-normals">
          <float_array id="spot_stage-mesh-normals-array" count="18">0 0 1 0 -1 0 1 0 0 0 1 0 -1 0 0 0 0 -1</float_array>
          <technique_common>
            <accessor source="#spot_stage-mesh-normals-array" count="6" stride="3">
              <param name="X" type="float"/>
              <param name="Y" type="float"/>
              <param name="Z" type="float"/>
            </accessor>
          </technique_common>
        </source>
        <vertices id="spot_stage-mesh-vertices">
          <input semantic="POSITION" source="#spot_stage-mesh-positions"/>
        </vertices>
        <triangles material="Material_001-material" count="124">
          <input semantic="VERTEX" source="#spot_stage-mesh-vertices" offset="0"/>
          <input semantic="NORMAL" source="#spot_stage-mesh-normals" offset="1"/>
          <p>0 0 1 0 2 0 1 0 0 0 3 0 3 0 0 0 4 0 3 0 4 0 5 0 5 0 4 0 6 0 5 0 6 0 2 0 2 0 6 0 7 0 2 0 7 0 0 0 8 0 9 0 10 0 9 0 8 0 11 0 11 0 8 0 12 0 11 0 12 0 13 0 13 0 12 0 14 0 13 0 14 0 10 0 10 0 14 0 15 0 10 0 15 0 8 0 16 0 17 0 18 0 17 0 16 0 19 0 19 0 16 0 20 0 19 0 20 0 21 0 21 0 20 0 22 0 21 0 22 0 18 0 18 0 22 0 23 0 18 0 23 0 16 0 24 0 25 0 26 0 25 0 24 0 27 0 27 0 24 0 28 0 27 0 28 0 29 0 29 0 28 0 30 0 29 0 30 0 26 0 26 0 30 0 31 0 26 0 31 0 24 0 32 0 33 0 34 0 33 0 32 0 35 0 35 0 32 0 36 0 35 0 36 0 37 0 37 0 36 0 38 0 37 0 38 0 34 0 34 0 38 0 39 0 34 0 39 0 32 0 38 1 36 1 40 1 40 1 36 1 41 1 39 2 38 2 42 2 42 2 38 2 40 2 32 3 39 3 43 3 43 3 39 3 42 3 36 4 32 4 41 4 41 4 32 4 43 4 43 5 42 5 41 5 41 5 42 5 40 5 31 4 30 4 35 4 35 4 30 4 33 4 24 1 31 1 37 1 37 1 31 1 35 1 28 2 24 2 34 2 34 2 24 2 37 2 30 3 28 3 33 3 33 3 28 3 34 3 22 3 20 3 29 3 29 3 20 3 27 3 23 4 22 4 26 4 26 4 22 4 29 4 16 1 23 1 25 1 25 1 23 1 26 1 20 2 16 2 27 2 27 2 16 2 25 2 44 1 45 1 17 1 17 1 45 1 18 1 46 2 44 2 19 2 19 2 44 2 17 2 47 3 46 3 21 3 21 3 46 3 19 3 45 4 47 4 18 4 18 4 47 4 21 4 44 0 48 0 49 0 48 0 44 0 50 0 50 0 44 0 46 0 50 0 46 0 51 0 51 0 46 0 47 0 51 0 47 0 49 0 49 0 47 0 45 0 49 0 45 0 44 0 15 4 14 4 49 4 49 4 14 4 51 4 8 1 15 1 48 1 48 1 15 1 49 1 12 2 8 2 50 2 50 2 8 2 48 2 14 3 12 3 51 3 51 3 12 3 50 3 7 4 6 4 10 4 10 4 6 4 13 4 0 1 7 1 9 1 9 1 7 1 10 1 4 2 0 2 11 2 11 2 0 2 9 2 6 3 4 3 13 3 13 3 4 3 11 3 52 4 53 4 2 4 2 4 53 4 5 4 54 1 52 1 1 1 1 1 52 1 2 1 55 2 54 2 3 2 3 2 54 2 1 2 53 3 55 3 5 3 5 3 55 3 3 3 54 0 56 0 57 0 56 0 54 0 58 0 58 0 54 0 55 0 58 0 55 0 59 0 59 0 55 0 53 0 59 0 53 0 57 0 57 0 53 0 52 0 57 0 52 0 54 0 60 4 61 4 57 4 57 4 61 4 59 4 62 1 60 1 56 1 56 1 60 1 57 1 63 2 62 2 58 2 58 2 62 2 56 2 61 3 63 3 59 3 59 3 63 3 58 3 62 0 63 0 60 0 60 0 63 0 61 0</p>
        </triangles>
      </mesh>
    </geometry>
  </library_geometries>
  <library_visual_scenes>
    <visual_scene id="Scene" name="Scene">
      <node id="spot_stage" name="spot_stage" type="NODE">
        <matrix sid="transform">0.001 0 0 0 0 0.001 0 0 0 0 0.001 0 0 0 0 1</matrix>
        <instance_geometry url="#spot_stage-mesh" name="spot_stage">
          <bind_material>
            <technique_common>
              <instance_material symbol="Material_001-material" target="#Material_001-material"/>
            </technique_common>
          </bind_material>
        </instance_geometry>
      </node>
    </visual_scene>
  </library_visual_scenes>
  <scene>
    <instance_visual_scene url="#Scene"/>
  </scene>
</COLLADA>