# Blender 4.5.2 LTS
# www.blender.org
mtllib tree_lowpoly.mtl
o Tree_average_lush
v 0.616392 -1.039007 1.800597
v 0.972285 -1.631625 -0.001766
v 0.603889 -0.100493 1.899544
v 1.274362 0.274378 -0.001766
v -0.374313 -1.014861 1.882573
v -0.960076 -1.695057 -0.001766
v -0.389188 -0.075991 1.927737
v -0.968567 0.341044 -0.001766
v -1.244659 -0.674995 -0.001766
v 0.613314 -0.563186 1.821858
v -0.378336 -0.537329 1.933944
v 0.984874 -0.600673 -0.001766
v 0.098545 -1.921626 -0.001766
v 0.111125 -0.079883 1.870746
v 0.159085 0.160459 -0.001766
v 0.125636 -1.014650 1.885305
v -0.193020 -0.615571 -0.001766
v 0.261540 -0.012454 5.158143
v -0.213373 -0.090789 5.181852
v 0.597188 -0.321781 5.192904
v 0.612373 -0.016689 5.141498
v -0.237313 -0.400865 5.234330
v -0.315612 -0.834668 5.342600
v 0.166080 -0.775126 5.295961
v 0.512719 -0.800119 5.253976
v 1.253174 1.815102 11.125132
v 0.248337 1.024156 8.770935
v 0.013860 1.023719 8.773316
v 0.446144 0.815155 8.752200
v 0.433727 0.988214 8.755037
v 0.028632 0.846029 8.773596
v 0.041387 0.602149 8.769636
v 0.278621 0.608455 8.765957
v 0.458853 0.564561 8.749410
v 0.525603 0.908866 8.149775
v 1.157099 1.840880 11.118423
v 1.349690 1.662158 11.136835
v 1.332921 1.745037 11.148367
v 1.171552 1.761630 11.108057
v 1.170496 1.635043 11.114030
v 1.268175 1.608458 11.119554
v 1.352712 1.537580 11.139536
v 3.569414 0.159721 9.935327
v -0.021808 0.985706 8.158701
v 0.229236 0.986995 8.151665
v -0.006114 0.797991 8.153071
v -0.000594 0.532195 8.146502
v 0.252457 0.538518 8.137860
v 0.536011 0.437654 8.137703
v 0.535456 0.718053 8.141629
v 1.355792 2.076486 12.977108
v 3.405843 0.210728 10.174052
v 3.404006 0.352434 10.171239
v 3.411510 0.477113 10.175567
v 3.576444 0.451370 9.937137
v 3.569741 0.315664 9.932738
v 4.929076 -0.130041 12.575379
v 0.540826 -0.160163 5.801206
v 0.217128 -0.397885 5.825577
v -0.013633 0.089160 5.763161
v 0.547038 0.102465 5.757756
v 0.205443 0.116780 5.769424
v -0.026388 -0.178970 5.807366
v -0.016314 -0.422759 5.834525
v 0.557354 -0.433538 5.792665
v -3.395338 -1.857634 7.557720
v -3.361558 -2.083884 7.544635
v -3.436073 -1.478170 7.631937
v -3.253946 -1.446249 7.853154
v -3.169417 -1.700301 7.827833
v -3.132872 -1.917736 7.806880
v -3.627878 -1.818788 8.174420
v -3.609682 -2.003892 8.200220
v -3.761431 -1.722246 8.106727
v -3.459118 -1.596906 8.073373
v -3.419716 -1.743430 8.086609
v -3.391548 -1.933471 8.092521
v -2.622899 -1.432150 9.943804
v -2.608192 -1.566662 9.956429
v -2.645509 -1.295076 9.937748
v -2.390015 -1.198072 9.868174
v -2.373805 -1.339542 9.866345
v -2.366041 -1.480706 9.868081
v -2.481213 -2.063713 11.741823
v -4.409118 -0.192259 9.314440
v -4.566916 -0.105069 9.228188
v -4.638423 -0.318460 9.384450
v -4.896544 -0.298097 9.377731
v -5.942039 0.089352 11.384056
v -5.628743 -3.655766 9.096683
v -5.612839 -3.686184 9.185945
v -5.363654 -3.369365 9.105580
v -5.341374 -3.382591 9.193548
v -6.159111 -3.658174 11.069662
v -0.354604 -3.655525 7.158050
v -0.071731 -3.632014 7.207039
v -0.647195 -3.671134 7.096311
v -0.373024 -3.370687 7.285074
v -0.523465 -3.387056 7.259570
v -0.141763 -3.353903 7.311852
v -0.696543 -4.640424 9.471045
v -0.586572 -4.661895 9.500017
v -0.858636 -4.611578 9.427343
v -0.719803 -4.427422 9.489274
v -0.798478 -4.419929 9.467317
v -0.606626 -4.446234 9.519210
v -1.183058 -4.798089 11.223557
v -0.345589 -3.566222 7.543733
v -0.475822 -3.572209 7.531811
v -0.618215 -3.585612 7.500592
v -0.733901 -3.843930 7.365006
v -0.451548 -3.831840 7.432960
v -0.268238 -3.820026 7.462383
v 1.070671 -3.553031 8.441270
v 0.941801 -3.398818 8.506194
v 0.772966 -3.508795 8.601933
v 0.888168 -3.656779 8.549312
v 1.588362 -4.571221 10.474195
v -2.650943 1.347794 9.157565
v 5.696973 0.487728 13.341408
v 2.982810 2.299446 6.379258
v 6.460180 1.417124 12.257868
v -2.836526 0.456499 10.641275
v -2.050914 4.644804 9.369741
v -0.505761 5.567970 11.941726
v -5.332368 -5.010040 8.606038
v -5.804103 0.453107 8.843739
v -3.237020 -3.723079 7.821128
v -7.394619 -2.795943 8.318341
v -3.332109 0.153409 12.457842
v 3.088514 -4.276877 13.405341
v 3.834563 -1.940116 7.259484
v 3.569200 -3.944007 6.054693
v 0.623554 -5.510547 7.104733
v -2.103753 -3.431490 11.330858
v 4.081120 -1.878590 9.966716
v 2.537922 -0.701423 10.593767
v 1.859483 -0.779194 12.084253
v 1.256738 -4.478481 13.394753
v 4.021918 0.326083 8.416991
v 3.174912 -0.124155 10.064095
v 4.409604 -1.098902 11.241655
v -1.651732 -0.039383 11.484387
v 6.341368 2.756588 10.471360
v 2.717037 5.779037 11.793488
v -0.715763 -0.246800 12.515585
v -1.375971 -0.388354 12.260969
v -1.967705 2.193630 12.964259
v -1.353917 0.031042 12.909840
v -2.105101 3.778787 11.981018
v 2.672794 4.419915 13.557189
v 6.141017 1.505554 9.761799
v 2.098378 1.727678 6.136324
v -2.561704 1.626762 8.034569
v 1.919776 4.837074 7.152343
v 3.164973 -1.556993 11.974996
v -2.409375 0.045649 12.142488
v 4.092363 4.993069 12.473977
v 5.078367 0.133825 13.725801
v 1.083295 -0.897636 12.837680
v 4.488274 0.381678 13.941015
v -0.258000 -0.075551 13.782791
v 0.544594 3.740770 13.932935
v 1.557236 3.395075 14.414660
v 3.903429 1.945211 14.421077
v 4.134420 3.948819 13.544353
v -0.161540 4.276391 13.277497
v -0.991113 0.876634 13.316872
v 0.743614 0.103153 13.850387
v 2.222101 1.167542 14.659799
v 5.054213 2.053696 13.471070
v 1.546017 5.743189 11.560546
v 0.617994 5.912473 10.063185
v -2.978046 0.981087 11.320157
v -0.759994 -0.398556 11.301311
v 3.350343 -1.116091 13.355815
v 4.708400 -1.254012 12.218646
v 4.116893 5.037610 10.070024
v 3.991494 4.090613 7.816310
v 3.509193 5.216863 9.001458
v -2.728478 3.637633 10.864381
v -3.495676 3.049591 9.614635
v -2.164492 0.409060 10.293422
v 1.782316 -1.382500 12.542975
v 1.243743 -0.901359 9.381564
v 2.352345 -0.969310 10.648075
v 6.047919 0.517100 11.925985
v 4.459663 2.894705 7.469943
v 1.399587 3.477312 6.601924
v -2.467255 2.605091 7.734914
v -1.838230 0.305094 9.498859
v 3.377752 1.318538 7.191970
v 0.796958 -0.059347 8.162505
v -0.036698 1.396088 7.156691
v -3.691869 -0.942669 7.508905
v -4.458829 0.033332 7.850414
v -2.687800 -3.469406 8.020999
v -3.733983 -4.756969 8.375525
v -1.573122 -0.972047 10.601154
v -3.356659 1.610033 10.975505
v -2.824552 0.817628 10.830028
v -0.327246 -2.658520 10.779492
v -0.807255 -1.441403 11.688316
v -5.571211 -5.724795 10.647561
v -6.879905 -4.639939 9.537858
v -4.254848 1.718458 11.768090
v -1.819956 -2.893874 12.620886
v -7.487917 -1.949895 12.346802
v -5.970464 -4.942740 12.494066
v -1.754828 -1.219070 8.387706
v -3.113840 -1.995489 7.514640
v -3.424376 0.378094 8.257812
v -0.985838 -1.554285 9.081897
v -4.022146 -4.264515 7.695409
v -4.993258 -4.388048 7.137711
v -7.279719 1.010299 12.015906
v -5.144975 1.560481 9.475267
v -3.241336 0.881937 9.565629
v -1.609847 -3.901137 10.358489
v -7.217067 -4.655189 10.387992
v -5.929012 -5.289286 8.256181
v -6.529166 0.888562 12.671095
v -0.955651 -1.840962 11.850216
v -7.241672 -0.692284 13.311358
v -3.077663 -2.060345 13.385899
v -6.745356 -2.401514 13.257401
v -5.979544 -3.870242 13.230996
v -3.734691 -3.305746 12.639604
v -2.064108 -1.848071 13.627736
v -2.530371 0.247937 12.514045
v -5.524514 0.290051 12.972204
v -8.006092 -2.538668 11.333565
v -8.059678 -1.387255 9.529329
v -4.460317 -5.664181 10.923530
v -1.587572 -2.509497 11.730468
v -0.579904 -1.890470 11.770427
v -1.697449 -0.195193 10.788493
v -6.208338 1.539418 11.492902
v -2.281782 -3.742473 11.355193
v -2.644597 -4.510528 9.720595
v -2.476439 -0.146029 9.309155
v -6.012238 1.422976 10.754173
v -7.257786 0.132865 10.251997
v -6.995261 -0.337021 8.260838
v -4.668327 -2.948620 6.043509
v -3.526202 -2.695730 7.047820
v -4.313234 -3.773930 7.419635
v -2.497202 -4.505181 8.522381
v -2.078539 -3.142958 8.309738
v -1.627961 -2.564651 8.071585
v -4.601869 -1.512712 6.990845
v -2.867633 -1.128985 8.349097
v 2.639575 -3.038674 6.327017
v -2.283136 -2.945683 10.578253
v -1.510756 -1.705978 10.751824
v 2.129442 -0.863670 8.966654
v 3.557373 -0.909855 11.341071
v -0.612009 -6.098553 8.511618
v 4.206653 -3.703061 10.904163
v 3.442841 -7.041229 10.958797
v 1.463403 -1.919293 13.034456
v 2.723468 -1.570136 12.661346
v 2.435449 -6.994200 11.379492
v 1.203582 -2.794911 7.367054
v 1.936762 -1.995343 7.133006
v -2.346269 -4.125292 9.391935
v 3.223894 -4.969171 5.606683
v 2.630423 -5.509861 5.958688
v -0.495785 -1.067503 10.315719
v 3.884604 -1.397551 10.683619
v 4.957821 -5.050102 9.898726
v 1.940084 -6.962047 8.829949
v 3.117159 -6.825778 7.694654
v -0.535267 -4.538148 12.779429
v -0.717726 -3.611159 12.069633
v 0.875960 -1.434129 11.877838
v 1.614728 -3.564966 13.200314
v 2.487597 -2.947391 12.640878
v 1.212056 -5.692954 12.927470
v -0.080665 -4.981318 12.683834
v 3.650797 -6.224347 10.972988
v 3.480936 -2.914809 12.703263
v 3.605747 -1.565082 12.608759
v 2.162101 -2.214421 12.882141
v -0.128542 -6.256947 10.844869
v -0.018997 -6.093845 9.829645
v 1.348717 -7.328678 10.397382
v 3.365593 -6.674736 8.978725
v 3.577868 -5.561645 6.894447
v 4.038157 -6.174225 8.359516
v 4.491158 -5.317193 10.364103
v 0.338267 -1.746714 12.181117
v -1.127171 -3.206450 11.354834
v 2.340290 -6.907279 7.923800
v 4.808265 -4.193103 9.721292
v 5.261763 -4.598612 8.491380
v 5.009809 -3.248213 8.339571
v 3.440624 -1.832519 8.892200
v 1.682342 -0.840308 9.587348
v -2.134701 -4.627648 11.697858
v -2.650470 -4.147054 10.992060
v 1.055543 -3.478225 6.263366
v 2.480435 -4.158240 5.098987
v 4.417171 -3.953228 6.385160
v 4.599219 -2.976151 6.595686
v 3.093225 -1.989817 7.057528
v -0.109541 -4.261977 7.040374
v -1.079000 -2.625668 7.878408
v 1.817821 -1.583182 8.022938
v 0.050531 -1.521612 8.096944
v -1.660568 1.272735 7.800527
v -1.092194 2.502168 6.778271
v 0.910891 2.426231 6.207491
v 5.151245 -0.081939 11.447788
v 4.582359 -0.176531 9.513333
v -0.135741 -0.309011 9.823816
v -2.989188 0.698695 9.528306
v -1.015198 4.059871 7.866147
v 5.220934 3.803641 9.619703
v -2.918438 1.399683 10.401698
v -0.586446 5.466378 8.497231
v 6.273335 2.747509 11.111550
v 2.147149 -0.347477 14.364906
v 1.198292 5.669244 13.275879
v 1.805283 2.313082 14.257575
v 0.494556 2.145486 14.112485
v -1.401830 4.154451 13.345920
v -0.735149 1.920583 14.250044
v 0.488939 0.672490 14.071842
v 1.215013 0.697688 14.558331
v 5.963224 1.360738 13.420130
v 5.418578 3.288017 12.498555
v -1.644205 4.348662 11.172281
v -2.404624 2.209583 11.354662
v 0.597793 -0.318210 12.091570
v 4.078862 -1.490609 12.913745
v 1.505790 5.895136 8.426812
v -3.509398 3.594992 9.073185
v 1.559636 -1.065350 11.031156
v 5.627328 0.600541 10.026957
v -0.588266 4.263167 7.419424
v -2.119385 3.441166 7.443572
v -2.311536 1.060241 8.603864
v 5.494260 1.551941 7.875615
v 4.005146 1.334300 7.636995
v 2.281179 0.885816 7.449039
v 2.486154 -0.454069 8.510999
v -2.389601 -2.193759 7.909366
v -6.106791 -3.723138 8.403758
v -4.861443 1.586649 10.876673
v -0.545493 -2.919013 11.217306
v -4.283167 0.075594 13.101783
v -1.287274 -0.337459 13.300052
v -5.622036 -4.781540 12.030152
v -5.107682 -3.186460 13.326813
v -6.960697 -4.474737 12.383474
v -4.052120 -2.775135 13.761600
v -4.340176 -4.194720 12.572268
v -3.085357 -3.347740 12.670416
v -3.228315 -4.627352 12.006536
v -1.155195 -1.402807 12.938661
v -3.194045 -1.134913 13.758574
v -2.229965 -0.323423 13.660195
v -4.718932 -1.824966 13.750041
v -4.132710 -1.140348 13.455092
v -5.504468 -1.277952 13.403541
v -6.361050 -0.160698 12.909291
v -8.210311 -0.601435 12.038756
v -7.761369 -3.680938 10.645717
v -6.370763 -4.803988 11.095807
v -1.057182 -0.604660 11.732002
v -1.907416 0.359771 11.766198
v -6.290342 -4.688934 8.901032
v -3.168431 -4.339537 10.643671
v -0.473575 -1.525166 10.475749
v -1.031790 -1.030700 9.290540
v -5.495671 -2.354846 6.313916
v -1.732557 -3.484694 9.159033
v -0.600359 -2.876570 9.441751
v -5.764693 -0.614553 7.288628
v -3.621243 -1.827498 6.616335
v -1.992646 -0.552234 9.109595
v -1.611112 -1.856598 8.796608
v 4.294598 -5.077188 7.212695
v 2.681441 -0.993563 9.798755
v 4.810142 -2.688254 9.464995
v -1.720237 -5.459188 9.613286
v 0.640809 -2.556072 13.249062
v 3.865900 -3.368845 11.902528
v 2.242273 -5.185405 12.900465
v 3.029082 -5.185380 13.258645
v 3.833799 -5.531142 11.933406
v 4.169379 -4.763997 12.307689
v 0.155778 -3.862895 12.286484
v -1.156758 -5.615388 11.958560
v 4.713858 -2.970706 10.930525
v 4.615807 -2.284578 10.870104
v 4.123307 -1.916324 11.397214
v 2.542032 -0.848609 11.797908
v -0.743397 -2.575931 11.740595
v 2.959583 -6.038073 6.991158
v 4.683631 -2.196097 9.646041
v 1.010577 -1.354237 10.852356
v 0.051349 -0.932127 9.610399
v -2.049126 -5.447571 10.794650
v 1.443559 -4.388440 6.644620
v 4.262431 -3.439547 6.139187
v 4.549823 -2.445702 8.369308
v -1.543736 -3.556031 8.594729
v 0.410709 -2.586683 7.136011
v 1.210267 -1.190989 8.173006
v 0.657624 -1.043193 8.930743
vn 0.0298 0.9993 -0.0239
vn 0.1166 0.9813 0.1534
vn -0.9042 -0.1874 0.3838
vn -0.0000 -0.0000 -1.0000
vn 0.9459 -0.2123 0.2454
vn 0.1994 -0.9015 0.3842
vn 0.9801 -0.0090 0.1982
vn -0.9195 0.1666 0.3560
vn 0.0633 -0.9962 0.0599
vn -0.9986 0.0206 0.0479
vn -0.1323 -0.9057 0.4027
vn -0.0599 0.9869 0.1495
vn 1.0000 -0.0076 0.0015
vn -0.0047 0.9982 -0.0606
vn -0.9972 -0.0371 0.0650
vn 0.5105 0.0379 -0.8590
vn 0.0283 -0.9936 0.1095
vn -0.0483 -0.9964 0.0690
vn -0.0765 0.9971 -0.0042
vn 0.9962 -0.0840 0.0234
vn -0.9962 0.0828 0.0256
vn 0.9302 0.0391 -0.3651
vn -0.0572 -0.9066 0.4181
vn 0.9135 0.1259 -0.3869
vn -0.3550 -0.8048 0.4757
vn 0.2269 0.9707 -0.0789
vn -0.9945 -0.0838 0.0625
vn -0.2905 -0.9468 0.1384
vn -0.4352 -0.0288 0.8999
vn 0.9776 0.2047 -0.0493
vn -0.6568 -0.7233 0.2132
vn -0.9725 -0.1942 0.1286
vn 0.6762 0.7234 -0.1396
vn -0.8950 -0.0258 0.4454
vn 0.0761 0.9322 -0.3538
vn 0.3478 0.8413 -0.4138
vn -0.8743 -0.1179 0.4708
vn -0.0582 0.9364 -0.3461
vn -0.9994 -0.0298 0.0201
vn 0.9995 0.0310 -0.0059
vn 0.0728 -0.9234 0.3769
vn -0.2675 -0.9313 0.2473
vn 0.9997 0.0241 -0.0087
vn -0.9953 0.0128 0.0959
vn 0.2659 0.9524 -0.1492
vn 0.1286 0.9357 -0.3286
vn -1.0000 -0.0060 0.0049
vn -0.1817 -0.9165 0.3563
vn 1.0000 0.0082 0.0027
vn 0.2622 0.9619 0.0775
vn -0.8411 0.0319 0.5399
vn -0.1840 -0.9712 0.1511
vn -0.4356 -0.0161 0.9000
vn 0.1913 0.9795 -0.0638
vn 0.5093 0.0029 -0.8606
vn 0.8869 -0.0289 -0.4611
vn -0.2601 -0.9652 0.0280
vn -0.8445 -0.0003 0.5356
vn 0.8886 -0.0095 -0.4587
vn 0.9944 -0.0202 0.1035
vn 0.0243 0.4467 0.8943
vn -0.5643 -0.0804 -0.8217
vn 0.0182 0.9803 -0.1966
vn 0.0688 -0.5406 -0.8385
vn 0.9950 -0.0864 0.0500
vn -0.4310 0.9018 -0.0330
vn -0.1525 0.9610 -0.2308
vn 0.3783 -0.8872 0.2643
vn 0.7227 0.0895 0.6853
vn 0.5148 0.0635 0.8550
vn -0.6020 0.0105 -0.7984
vn 0.5043 0.1003 0.8577
vn 0.5301 -0.8103 0.2499
vn -0.7715 -0.3474 0.5330
vn 0.8379 0.1409 -0.5274
vn 0.6357 -0.2230 0.7390
vn -0.3672 -0.3293 -0.8699
vn 0.6731 0.1867 0.7156
vn -0.8268 -0.2962 -0.4783
vn 0.2305 -0.9331 -0.2762
vn 0.9954 0.0557 0.0785
vn 0.8527 0.0806 -0.5162
vn 0.3378 -0.9402 0.0431
vn -0.3686 0.9295 0.0104
vn -0.8658 -0.0291 0.4995
vn -0.2285 0.8880 0.3991
vn -0.9936 -0.1047 0.0415
vn 0.9887 0.1120 0.0999
vn -0.9866 -0.1618 0.0209
vn 0.5305 -0.6936 0.4873
vn 0.4565 0.8143 -0.3584
vn -0.7237 0.1118 -0.6810
vn 0.1515 -0.6119 0.7763
vn 0.4012 0.8991 0.1748
vn -0.5940 0.6737 -0.4396
vn -0.0816 -0.9856 0.1478
vn 0.0050 0.9891 0.1474
vn 0.6973 -0.6309 0.3403
vn 0.0518 0.5048 0.8617
vn -0.7164 0.6336 -0.2921
vn 0.7245 -0.6533 0.2198
vn -0.5970 -0.7859 -0.1614
vn -0.7173 0.6698 -0.1920
vn -0.9378 0.3412 0.0647
vn -0.0208 0.9157 0.4013
vn 0.9795 -0.1217 0.1605
vn -0.0865 0.4483 0.8897
vn 0.0079 -0.5564 -0.8308
vn -0.9144 0.2881 0.2844
vn 0.9420 0.0582 0.3306
vn 0.0323 0.9756 0.2171
vn 0.0537 -0.9337 -0.3541
vn -0.1164 0.9168 0.3821
vn 0.9659 0.1562 0.2065
vn 0.0431 -0.9281 -0.3699
vn -0.1565 -0.9789 -0.1315
vn 0.0991 0.9674 0.2332
vn -0.9368 0.3224 -0.1357
vn -0.1404 -0.9819 -0.1273
vn 0.1491 -0.8516 -0.5026
vn -0.3921 0.8383 0.3787
vn -0.1922 0.7955 0.5747
vn 0.1532 -0.8542 -0.4968
vn -0.1145 0.7866 0.6068
vn -0.9100 0.4140 -0.0223
vn -0.7898 -0.6134 -0.0041
vn -0.5712 -0.4927 0.6565
vn 0.3894 -0.8727 -0.2946
vn 0.6273 0.5172 -0.5822
vn -0.2133 0.8069 0.5508
vn 0.2019 -0.8542 -0.4792
vn 0.7845 0.6109 0.1062
vn -0.1671 -0.9258 -0.3390
vn 0.0581 -0.6146 -0.7867
vn 0.6704 -0.4470 -0.5923
vn -0.2316 0.4343 -0.8705
vn 0.6364 -0.7566 -0.1502
vn -0.3411 0.8631 -0.3724
vn -0.4058 0.7220 -0.5604
vn 0.7944 -0.5135 -0.3245
vn -0.3136 -0.9401 -0.1336
vn -0.2911 -0.9396 -0.1799
vn -0.9110 0.3544 -0.2107
vn -0.2032 0.9717 -0.1205
vn 0.6190 0.7816 0.0769
vn -0.0296 -0.8390 0.5433
vn -0.4272 0.4180 0.8018
vn 0.5996 0.2618 0.7563
vn -0.4815 -0.2330 0.8449
vn -0.1360 0.2291 0.9638
vn -0.1238 0.1148 0.9856
vn -0.0981 0.6993 0.7081
vn 0.2318 0.7008 0.6746
vn 0.1469 0.7817 0.6061
vn -0.7665 0.6264 0.1414
vn -0.8786 -0.0711 0.4723
vn -0.7096 -0.3648 0.6028
vn -0.3820 -0.7702 0.5108
vn -0.6258 -0.1036 0.7730
vn 0.1705 -0.9828 0.0712
vn -0.4718 -0.4949 0.7297
vn -0.3661 -0.7204 0.5891
vn -0.1320 0.0694 0.9888
vn 0.0791 0.1323 0.9880
vn -0.4867 0.0152 -0.8734
vn 0.4166 0.2277 0.8801
vn 0.6912 0.3102 0.6527
vn 0.6976 0.3049 0.6484
vn -0.0598 0.9871 0.1486
vn -0.0801 0.9964 0.0267
vn -0.4956 0.8685 -0.0140
vn -0.3239 0.9459 -0.0203
vn -0.0570 0.9875 0.1470
vn -0.7828 0.5612 0.2688
vn -0.6636 0.7349 0.1397
vn -0.8997 0.4163 0.1313
vn -0.8399 -0.0345 0.5416
vn -0.8815 0.4046 0.2433
vn -0.4055 -0.8789 -0.2510
vn 0.1651 -0.9794 0.1164
vn -0.0137 -0.9921 0.1245
vn -0.2015 -0.8774 0.4354
vn 0.2117 -0.9676 -0.1376
vn -0.2685 -0.9066 0.3255
vn 0.6153 0.3846 0.6881
vn 0.9462 -0.3178 0.0604
vn 0.4004 -0.7210 0.5656
vn 0.4882 0.8725 0.0211
vn 0.7891 0.6140 0.0194
vn 0.2373 0.9474 -0.2148
vn 0.6683 0.6558 -0.3512
vn 0.2425 0.9698 0.0248
vn 0.4031 0.7642 -0.5035
vn -0.1597 0.6588 -0.7352
vn -0.8697 -0.0281 0.4928
vn -0.8712 -0.0293 0.4901
vn -0.8432 -0.0393 0.5361
vn -0.6681 -0.5326 -0.5196
vn -0.3442 -0.8960 -0.2804
vn -0.0036 -0.9917 0.1283
vn -0.6132 -0.7654 -0.1953
vn -0.2300 -0.9342 -0.2729
vn 0.5113 -0.8524 0.1091
vn 0.8819 -0.3016 0.3624
vn 0.3452 -0.6322 -0.6937
vn 0.8664 -0.4069 0.2895
vn 0.9153 -0.3390 -0.2176
vn 0.9435 -0.1300 -0.3047
vn 0.7674 0.4483 -0.4585
vn 0.7648 0.4500 -0.4611
vn 0.2635 0.5090 -0.8194
vn 0.4330 0.4030 -0.8063
vn -0.1924 0.4306 -0.8818
vn -0.2332 0.7096 -0.6649
vn 0.3696 0.2237 -0.9019
vn -0.2176 0.3945 -0.8928
vn -0.5728 -0.0468 -0.8183
vn -0.9952 0.0778 -0.0598
vn -0.8454 0.1761 -0.5042
vn -0.8607 -0.3212 -0.3950
vn -0.8215 0.1083 -0.5598
vn 0.7951 -0.5350 -0.2858
vn 0.5410 0.1678 -0.8241
vn 0.9457 0.0320 -0.3235
vn 0.1956 -0.8924 -0.4067
vn -0.1195 -0.8432 -0.5241
vn -0.2906 -0.5461 -0.7857
vn 0.4877 -0.4321 -0.7586
vn -0.4048 -0.8431 -0.3540
vn -0.4653 -0.7989 -0.3813
vn -0.2402 -0.6412 -0.7288
vn -0.0243 -0.5777 -0.8159
vn -0.0822 -0.8339 -0.5458
vn 0.0172 -0.6194 -0.7849
vn 0.1912 -0.9569 -0.2187
vn 0.5148 0.2446 -0.8217
vn 0.7008 0.3815 -0.6029
vn 0.5147 0.5144 -0.6860
vn 0.3147 0.2451 -0.9170
vn -0.6234 -0.2282 -0.7479
vn 0.6485 -0.2155 -0.7300
vn 0.6501 0.7592 0.0308
vn 0.9228 0.1757 -0.3428
vn 0.9791 0.1601 0.1256
vn 0.0407 -0.8010 -0.5972
vn 0.1972 -0.9802 0.0199
vn -0.4515 -0.6803 -0.5774
vn -0.1419 0.9898 0.0102
vn 0.0162 0.8889 -0.4577
vn 0.4579 0.8763 0.1499
vn 0.6943 -0.7186 -0.0386
vn 0.9183 -0.1632 0.3607
vn 0.7501 0.6614 -0.0026
vn 0.2574 -0.6383 0.7255
vn 0.7501 -0.5457 0.3737
vn -0.8069 -0.2278 0.5450
vn -0.0703 -0.0519 0.9962
vn -0.4766 -0.1340 0.8689
vn -0.0682 -0.0542 0.9962
vn -0.8226 -0.1462 0.5495
vn -0.5197 -0.2855 0.8052
vn -0.4301 -0.9021 0.0336
vn 0.3319 -0.5323 0.7788
vn -0.0716 -0.6320 0.7717
vn 0.7208 -0.5252 0.4523
vn 0.0542 -0.7389 0.6716
vn 0.6697 -0.4279 0.6069
vn -0.1064 -0.4825 0.8694
vn 0.8337 -0.4422 0.3308
vn 0.6472 -0.1717 0.7427
vn -0.1372 -0.3848 0.9127
vn -0.2293 0.6793 0.6971
vn 0.5101 -0.2653 0.8182
vn -0.1358 0.8720 0.4703
vn -0.5948 0.6883 0.4154
vn -0.3045 0.1610 0.9388
vn 0.5450 0.1560 0.8238
vn -0.2094 0.2569 0.9435
vn -0.0549 0.2642 0.9629
vn -0.7726 -0.2842 0.5678
vn -0.7752 -0.2867 0.5630
vn -0.9951 -0.0939 -0.0303
vn -0.9772 -0.0949 -0.1901
vn -0.8659 -0.4068 -0.2911
vn -0.9018 -0.3477 0.2566
vn -0.1733 -0.5486 0.8179
vn -0.7062 -0.6902 0.1581
vn 0.0549 -0.7517 0.6572
vn 0.5191 -0.8238 -0.2277
vn 0.1294 -0.9405 -0.3141
vn 0.7100 -0.7026 -0.0477
vn 0.6256 -0.7684 -0.1348
vn 0.6599 -0.5328 0.5297
vn 0.2683 -0.4098 0.8718
vn 0.0740 -0.7007 0.7096
vn 0.1244 -0.4667 0.8756
vn 0.2351 0.2887 0.9281
vn -0.1648 0.6234 0.7644
vn 0.6500 0.3090 0.6943
vn -0.0060 0.9898 -0.1422
vn -0.1190 0.9754 -0.1853
vn -0.0021 0.6055 0.7958
vn -0.8261 -0.4526 -0.3357
vn -0.6105 -0.7903 -0.0526
vn -0.2360 -0.4090 -0.8815
vn -0.0014 -0.9834 0.1813
vn 0.8433 -0.4751 -0.2512
vn 0.4543 0.8886 0.0636
vn 0.9150 0.2161 -0.3408
vn 0.6376 0.7207 -0.2722
vn 0.7562 0.6170 -0.2179
vn 0.7877 0.5713 -0.2306
vn 0.7133 0.6147 -0.3367
vn -0.5284 0.8058 -0.2673
vn -0.8401 0.4815 -0.2500
vn -0.5954 0.7164 -0.3638
vn -0.8097 0.5383 -0.2338
vn -0.8065 0.1174 -0.5795
vn -0.8174 0.5340 -0.2163
vn -0.5429 -0.4271 -0.7231
vn -0.7302 0.2445 -0.6380
vn 0.6862 -0.5320 -0.4961
vn 0.3462 -0.2952 -0.8905
vn 0.5044 -0.5837 -0.6363
vn 0.2065 -0.5376 -0.8175
vn 0.4885 -0.2792 -0.8267
vn 0.7051 0.2245 -0.6726
vn 0.8059 0.0751 -0.5873
vn 0.7080 0.3142 -0.6325
vn -0.2567 0.7937 -0.5514
vn -0.0685 0.6682 -0.7409
vn -0.0112 0.6822 -0.7311
vn 0.3836 0.2057 -0.9003
vn 0.2262 0.6331 -0.7403
vn 0.4575 0.7232 -0.5173
vn 0.0645 0.4055 -0.9118
vn 0.0232 0.7333 -0.6795
vn 0.7099 0.3269 -0.6239
vn -0.0320 0.9053 -0.4236
vn -0.2951 0.9192 -0.2608
vn -0.9004 -0.1257 -0.4165
vn -0.0555 0.5867 -0.8079
vn 0.0586 0.6082 -0.7916
vn -0.0539 0.2365 -0.9701
vn -0.2141 0.8431 -0.4933
vn 0.4338 0.6371 -0.6371
vn -0.5434 0.8387 -0.0367
vn 0.5657 0.7850 -0.2527
vn -0.1173 0.9856 -0.1216
vn 0.7720 0.3292 0.5437
vn 0.8495 0.4938 -0.1856
vn -0.6045 -0.3907 -0.6942
vn 0.5152 0.8304 -0.2121
vn 0.8786 -0.4276 -0.2126
vn -0.3338 -0.9300 0.1535
vn -0.3843 -0.9180 -0.0980
vn -0.2281 0.8511 0.4729
vn 0.3158 0.7597 0.5685
vn 0.9353 0.2699 0.2289
vn 0.7417 0.3308 0.5835
vn -0.0480 -0.9988 -0.0033
vn 0.3784 -0.1123 0.9188
vn 0.1014 -0.8187 0.5652
vn -0.2845 -0.4718 0.8345
vn -0.3453 -0.3259 0.8801
vn 0.3559 -0.6889 0.6314
vn 0.0525 -0.5220 0.8513
vn -0.3347 -0.7702 0.5430
vn 0.5132 -0.4128 0.7525
vn -0.3337 -0.7160 0.6131
vn -0.1682 -0.9138 0.3696
vn 0.6665 -0.1611 0.7278
vn 0.7886 -0.5600 0.2540
vn 0.9834 0.1314 0.1254
vn 0.8946 -0.0279 0.4459
vn 0.8996 -0.0075 0.4367
vn -0.0625 -0.0041 0.9980
vn 0.0590 0.0643 0.9962
vn 0.9122 -0.0559 0.4059
vn 0.8451 0.4874 0.2197
vn 0.1468 0.5421 0.8274
vn 0.0560 0.6277 0.7765
vn 0.2597 0.1204 0.9581
vn -0.5412 0.6413 0.5439
vn 0.1672 0.1141 0.9793
vn -0.5460 0.3736 0.7499
vn -0.4120 -0.4363 0.7999
vn -0.3383 -0.4734 0.8133
vn -0.0233 0.6049 0.7960
vn -0.6135 -0.7666 -0.1894
vn -0.5293 -0.7598 -0.3774
vn 0.9661 -0.2445 -0.0829
vn 0.2127 -0.9593 -0.1859
vn 0.6208 -0.7617 0.1854
vn 0.7271 0.1071 0.6782
vn 0.7768 0.6004 -0.1899
vn 0.7274 0.6474 0.2273
vn 0.4446 0.8110 -0.3803
vn 0.1136 0.9862 0.1202
vn -0.3377 0.9402 0.0442
vn 0.1106 -0.5668 0.8164
vn -0.8162 0.1565 0.5562
vn -0.1982 0.7999 0.5664
vn -0.5163 0.4543 0.7260
vn -0.2210 -0.8950 -0.3875
vn 0.4707 -0.7156 -0.5161
vn 0.3384 -0.5883 -0.7345
vn 0.9366 0.2199 0.2728
vn 0.6784 -0.4896 0.5478
vn 0.5763 -0.8062 -0.1342
vn 0.9382 0.2063 0.2779
vn 0.9865 0.0263 0.1619
vn 0.4396 0.7970 -0.4143
vn -0.2595 0.8643 0.4308
vn 0.1528 0.9835 0.0967
vn -0.3165 0.9255 0.2079
vn -0.6915 -0.5663 0.4485
vn -0.4241 0.2756 0.8627
vn -0.7555 0.6411 -0.1349
vn -0.8415 -0.4373 0.3172
vn -0.7486 -0.4344 -0.5009
vn -0.6769 -0.5106 -0.5301
vn -0.2540 -0.4638 -0.8487
vn -0.7921 0.3844 -0.4741
vn 0.6425 0.1147 -0.7577
vn 0.4241 -0.7728 -0.4721
vn -0.4237 -0.5191 -0.7423
vn 0.3409 -0.3205 -0.8838
vn 0.1794 0.6212 -0.7629
vn 0.8180 -0.0286 -0.5744
vn 0.8588 0.4969 -0.1247
vn 0.5062 0.8599 0.0655
vn -0.7664 0.4755 -0.4320
vn -0.6948 -0.3242 -0.6420
vn -0.9088 0.1561 -0.3868
vn -0.3265 0.8403 -0.4328
vn 0.2151 0.9687 -0.1238
vn -0.1103 0.9573 -0.2671
vn 0.2995 0.7085 -0.6390
vn -0.0286 0.3183 -0.9476
vn -0.2357 0.9071 -0.3488
vn -0.2181 -0.8518 -0.4764
vn -0.4887 -0.3355 -0.8054
vn -0.2756 -0.5360 -0.7979
vn -0.2273 -0.3695 0.9010
vn -0.2679 -0.3646 -0.8918
vn 0.0974 0.3097 -0.9458
vn 0.0956 0.2604 -0.9608
vn 0.8096 -0.5476 -0.2113
vn 0.6082 -0.7756 -0.1688
vn 0.6529 -0.5045 -0.5650
vn -0.3985 -0.9170 -0.0148
vn -0.3231 -0.9330 -0.1587
vn -0.9908 -0.0545 0.1240
vn -0.7389 0.4502 -0.5013
vn -0.6312 0.4694 -0.6174
vn 0.7744 0.4360 -0.4586
vn 0.6415 0.7616 0.0924
vn 0.2211 -0.9505 -0.2185
vn -0.4034 -0.8872 -0.2242
vn -0.9865 -0.1153 -0.1166
vn -0.1186 -0.8530 0.5083
vn 0.3197 0.8629 0.3915
vn 0.5595 -0.1849 0.8080
vn -0.2695 -0.9366 0.2239
vn -0.9619 0.0791 0.2619
vn -0.6306 0.3689 0.6828
vn 0.3051 0.0465 0.9512
vn 0.0724 0.2996 0.9513
vn 0.2102 0.4138 0.8858
vn 0.6366 0.0013 0.7712
vn -0.3471 0.6279 0.6966
vn -0.6320 0.1062 0.7677
vn 0.0244 0.3764 0.9261
vn -0.5627 -0.1800 0.8069
vn -0.1182 -0.2530 0.9602
vn -0.7653 -0.3144 0.5617
vn 0.1162 -0.0278 0.9928
vn 0.7390 0.6730 -0.0323
vn -0.5560 -0.0208 0.8309
vn 0.0016 -0.3619 0.9322
vn -0.3310 -0.7905 0.5153
vn -0.4319 -0.7097 0.5565
vn 0.1276 -0.4435 0.8871
vn 0.2303 -0.2059 0.9511
vn 0.1344 -0.4476 0.8841
vn 0.5906 0.7534 0.2891
vn 0.8364 0.4204 0.3516
vn 0.6813 0.5371 0.4972
vn -0.5434 0.8001 0.2541
vn -0.8958 -0.4220 0.1394
vn -0.2102 -0.8337 -0.5107
vn 0.5388 -0.8369 0.0965
vn 0.3020 -0.6218 -0.7226
vn 0.4323 0.7349 -0.5225
vn 0.2806 0.9492 0.1422
vn -0.6023 0.7613 0.2400
vn -0.5988 0.7632 0.2429
vn -0.8637 0.3440 0.3684
vn -0.8997 -0.3991 -0.1768
vn -0.2656 -0.9465 -0.1835
vn -0.2045 -0.9419 -0.2666
vn -0.5139 -0.8520 -0.0995
vn -0.6539 -0.7540 -0.0619
vn 0.0045 -0.9528 0.3036
vn 0.0664 -0.9916 -0.1113
vn 0.0181 -0.9780 -0.2078
vn 0.1678 -0.6657 -0.7271
vn 0.0705 -0.8954 -0.4397
vn 0.8596 -0.4687 0.2034
vn 0.9720 -0.2125 0.1003
vn -0.2188 0.3811 -0.8983
vn -0.4730 0.8795 -0.0518
vn -0.8041 -0.5588 -0.2027
vn -0.4256 -0.7280 -0.5374
vn -0.3457 -0.7993 -0.4916
vn -0.2875 -0.8016 -0.5243
vn 0.3819 -0.4848 -0.7868
vn 0.1925 -0.8136 -0.5486
vn -0.2076 -0.8404 -0.5006
vn 0.6611 -0.7378 -0.1365
vn 0.4523 -0.8918 -0.0112
vn -0.3386 0.6101 -0.7164
vn 0.0083 -0.3863 -0.9223
vn 0.5021 -0.1912 -0.8434
vn 0.5784 0.5895 0.5639
vn 0.6688 -0.2709 -0.6924
vn -0.6054 0.6344 -0.4806
vn -0.6090 0.7186 -0.3357
vn 0.8611 0.2452 -0.4453
vn 0.7328 -0.6793 -0.0389
vn 0.9751 0.0695 -0.2104
vn 0.3381 0.9372 -0.0859
vn 0.4214 0.8969 0.1339
vn 0.1055 -0.9459 -0.3067
vn -0.9391 -0.3018 -0.1647
vn 0.1777 -0.3689 0.9123
vn 0.2297 -0.9599 -0.1610
vn -0.8074 -0.2513 0.5338
vn -0.3045 -0.2024 0.9308
vn -0.0677 -0.0532 0.9963
vn -0.3392 -0.5347 0.7740
vn 0.6327 -0.6154 0.4700
vn -0.0727 -0.4842 0.8720
vn -0.0466 -0.6210 0.7824
vn 0.5555 -0.6396 0.5314
vn 0.9590 0.1040 0.2637
vn 0.1996 0.9104 0.3624
vn 0.9882 0.0778 0.1317
vn 0.1092 -0.0093 0.9940
vn 0.3571 0.0190 0.9339
vn -0.6502 -0.7446 0.1509
vn -0.4477 0.6111 0.6528
vn 0.2548 0.1903 0.9481
vn -0.1619 0.3516 0.9220
vn -0.1756 0.1911 0.9657
vn 0.1132 0.4733 0.8736
vn 0.8427 0.2627 -0.4698
vn -0.3660 -0.8759 0.3144
vn 0.6982 -0.7060 -0.1184
vn 0.7320 -0.6740 -0.0999
vn 0.8695 -0.4938 0.0138
vn 0.1735 0.7905 0.5874
vn 0.7292 0.6504 -0.2126
vn 0.1763 0.9414 0.2877
vn -0.1335 0.9315 0.3384
vn -0.0777 0.9925 -0.0939
vn -0.8022 -0.0349 -0.5960
vn -0.2269 0.8773 0.4229
vn -0.6499 0.0677 0.7570
vn -0.1196 -0.9907 -0.0652
vn -0.6376 -0.5408 -0.5486
vn 0.3886 -0.8773 -0.2819
vn -0.6897 0.2951 -0.6612
vn 0.3119 -0.8867 0.3412
vn 0.4812 -0.8749 0.0553
vn 0.3125 -0.8826 0.3512
vn 0.8580 0.4716 0.2035
vn 0.6296 0.7133 -0.3078
vn 0.3266 0.8657 -0.3792
vn -0.7086 0.4172 0.5691
vn -0.4418 0.8584 -0.2608
vn 0.0214 0.4389 -0.8983
vn -0.7833 -0.3898 -0.4843
vn 0.5939 -0.6131 -0.5210
vn 0.5070 -0.1738 -0.8443
vn 0.5211 -0.6756 -0.5215
vn 0.1775 -0.8168 0.5490
vn 0.8226 -0.3256 -0.4661
vn 0.5093 -0.7955 -0.3283
vn -0.6071 0.4324 0.6667
vn 0.1701 0.5014 -0.8483
vn -0.6068 0.0800 -0.7908
vn 0.4462 0.7430 -0.4988
vn 0.3072 0.9516 0.0045
vn 0.8464 -0.1598 -0.5080
vn 0.0833 0.7455 -0.6612
vn 0.7741 0.1863 -0.6051
vn 0.1911 0.4546 -0.8700
vn -0.5376 0.2580 -0.8028
vn -0.4143 0.5651 -0.7134
vn 0.1958 0.5020 -0.8424
vn -0.1788 0.7385 -0.6501
vn -0.8489 0.5285 0.0029
vn 0.3925 0.8941 -0.2159
vn 0.6129 -0.5107 -0.6029
vn 0.7937 -0.4144 -0.4453
vn -0.2119 -0.8215 -0.5294
vn 0.7669 0.6357 0.0884
vn -0.3292 0.8304 0.4495
vn 0.9718 0.2281 0.0589
vn 0.1651 0.8365 0.5226
vn 0.6283 -0.6275 -0.4598
vn -0.3632 -0.9167 0.1667
vn -0.3229 -0.9284 -0.1840
vn -0.3690 0.6874 0.6255
vn 0.6830 -0.6709 -0.2887
vn 0.2004 -0.3582 0.9119
vn -0.5029 -0.8151 0.2877
vn -0.4114 -0.1190 0.9037
vn 0.4420 -0.7652 0.4681
vn 0.6468 -0.5438 0.5347
vn 0.8232 -0.4954 0.2773
vn -0.0707 0.4730 0.8782
vn 0.5535 -0.0282 0.8324
vn 0.4530 -0.0908 0.8869
vn 0.2548 0.1073 0.9610
vn -0.0298 0.2192 0.9752
vn -0.5416 0.3808 0.7495
vn 0.4080 0.2278 0.8841
vn -0.3867 -0.9072 0.1656
vn -0.5215 -0.3061 0.7965
vn 0.3598 -0.9294 -0.0816
vn 0.7177 -0.6901 0.0931
vn -0.6914 0.3540 0.6298
vn 0.7302 -0.0976 0.6762
vn 0.7361 -0.5252 0.4270
vn 0.9844 0.1489 0.0934
vn 0.7754 0.1645 0.6096
vn -0.0673 0.9210 -0.3836
vn -0.6645 0.7414 0.0929
vn -0.5531 0.8331 -0.0077
vn 0.1669 -0.9845 0.0548
vn -0.5690 0.3460 0.7460
vn 0.5388 0.8048 -0.2491
vn -0.5223 -0.8057 -0.2794
vn -0.1836 -0.6553 -0.7327
vn -0.1427 -0.6750 -0.7239
vn 0.9977 0.0103 0.0675
vn 0.9024 0.2326 0.3626
vn 0.9332 0.1368 -0.3323
vn 0.9611 -0.1261 -0.2459
vn 0.8681 0.4919 0.0672
vn 0.3784 0.9066 -0.1867
vn -0.5342 0.2126 -0.8182
vn 0.2880 0.9523 0.1013
vn 0.0920 0.9623 0.2560
vn -0.7080 0.2238 0.6698
vn -0.9805 -0.1107 0.1623
vn -0.8640 -0.4447 -0.2362
vn -0.9033 -0.3908 -0.1770
vn -0.2572 -0.1997 -0.9455
vn -0.0104 -0.5375 -0.8432
vn 0.3519 0.2728 -0.8954
vn 0.7310 -0.5210 -0.4406
vn 0.7351 0.6549 -0.1754
vn -0.0459 0.9960 -0.0767
vn -0.7221 0.0519 -0.6898
vn -0.3860 0.5426 -0.7461
vn -0.4143 0.8482 -0.3301
vn -0.7560 -0.1181 -0.6439
vn 0.1557 -0.4063 -0.9004
vn -0.0079 0.6684 -0.7438
vn 0.3561 0.7724 -0.5260
vn 0.4369 0.6399 -0.6322
vt 0.556647 0.707540
vt 0.556491 0.772449
vt 0.558485 0.772470
vt 0.559540 0.707540
vt 0.557184 0.660502
vt 0.550676 0.660502
vt 0.553755 0.707540
vt 0.549045 0.660502
vt 0.553755 0.705536
vt 0.553755 0.706538
vt 0.555084 0.660502
vt 0.563692 0.660502
vt 0.561953 0.660502
vt 0.559540 0.706538
vt 0.556787 0.660502
vt 0.561876 0.660502
vt 0.559540 0.705536
vt 0.556647 0.705536
vt 0.556348 0.771962
vt 0.553725 0.773041
vt 0.553903 0.772250
vt 0.553929 0.772643
vt 0.558496 0.772060
vt 0.553964 0.843263
vt 0.553826 0.856566
vt 0.555108 0.856847
vt 0.555353 0.843513
vt 0.553909 0.843023
vt 0.553774 0.856400
vt 0.553738 0.856540
vt 0.553886 0.843189
vt 0.557141 0.843945
vt 0.576057 0.885700
vt 0.576015 0.885615
vt 0.557058 0.843828
vt 0.555301 0.843267
vt 0.555058 0.856676
vt 0.558336 0.771316
vt 0.556110 0.856684
vt 0.558271 0.933628
vt 0.558264 0.933665
vt 0.556172 0.856589
vt 0.557663 0.933672
vt 0.557051 0.933691
vt 0.556207 0.856761
vt 0.558264 0.933604
vt 0.557110 0.843701
vt 0.575069 0.890916
vt 0.575118 0.890990
vt 0.556659 0.980336
vt 0.557057 0.933654
vt 0.557051 0.933630
vt 0.557663 0.933611
vt 0.554943 0.786654
vt 0.556153 0.787006
vt 0.555082 0.786004
vt 0.554909 0.786334
vt 0.558108 0.786735
vt 0.558322 0.785329
vt 0.556363 0.785900
vt 0.558113 0.787092
vt 0.584902 0.941823
vt 0.576026 0.885635
vt 0.575086 0.890958
vt 0.550934 0.824866
vt 0.552044 0.824765
vt 0.532638 0.839238
vt 0.532541 0.838826
vt 0.550769 0.819733
vt 0.549390 0.820124
vt 0.532871 0.838926
vt 0.534263 0.843353
vt 0.534642 0.844255
vt 0.533180 0.849658
vt 0.532039 0.851436
vt 0.534505 0.843902
vt 0.533065 0.849158
vt 0.531937 0.850842
vt 0.540540 0.891677
vt 0.540447 0.891265
vt 0.531207 0.849382
vt 0.532950 0.848526
vt 0.541980 0.888839
vt 0.542032 0.889166
vt 0.528096 0.863198
vt 0.526899 0.865119
vt 0.518265 0.862681
vt 0.518317 0.862544
vt 0.542048 0.889415
vt 0.544033 0.935886
vt 0.540604 0.892034
vt 0.521641 0.918630
vt 0.527017 0.860966
vt 0.525553 0.865355
vt 0.519971 0.866445
vt 0.514776 0.909415
vt 0.519946 0.866612
vt 0.549265 0.827363
vt 0.548467 0.867121
vt 0.549053 0.868213
vt 0.550089 0.831520
vt 0.550726 0.831532
vt 0.549462 0.868468
vt 0.550084 0.868859
vt 0.551294 0.831158
vt 0.552241 0.819826
vt 0.550256 0.824893
vt 0.546021 0.914960
vt 0.549926 0.867952
vt 0.550560 0.827091
vt 0.549295 0.867554
vt 0.551446 0.826882
vt 0.560490 0.851339
vt 0.561444 0.848923
vt 0.560903 0.849593
vt 0.566847 0.901611
vt 0.561932 0.846919
vt 0.156648 0.709276
vt 0.160143 0.684598
vt 0.165480 0.709109
vt 0.154771 0.648408
vt 0.149628 0.688280
vt 0.147349 0.653213
vt 0.160736 0.656348
vt 0.172711 0.706517
vt 0.145339 0.639662
vt 0.143155 0.627879
vt 0.132945 0.626335
vt 0.171135 0.760841
vt 0.128190 0.684980
vt 0.136060 0.672976
vt 0.131945 0.645742
vt 0.133459 0.709334
vt 0.165556 0.786284
vt 0.164177 0.746552
vt 0.133679 0.687882
vt 0.123703 0.737636
vt 0.125229 0.669708
vt 0.130812 0.740672
vt 0.144847 0.740821
vt 0.120733 0.674202
vt 0.120964 0.713533
vt 0.121231 0.660356
vt 0.151279 0.693383
vt 0.142842 0.701944
vt 0.148879 0.741387
vt 0.172716 0.784396
vt 0.177596 0.750916
vt 0.175022 0.721560
vt 0.131639 0.785240
vt 0.128785 0.807788
vt 0.126869 0.771205
vt 0.145711 0.857765
vt 0.148670 0.824460
vt 0.141100 0.835434
vt 0.164160 0.830079
vt 0.161212 0.859835
vt 0.172002 0.819818
vt 0.148176 0.869996
vt 0.153173 0.868223
vt 0.140255 0.864014
vt 0.143771 0.864792
vt 0.154897 0.836726
vt 0.164936 0.799925
vt 0.157401 0.780273
vt 0.135933 0.779215
vt 0.135932 0.817618
vt 0.141281 0.785449
vt 0.135748 0.852460
vt 0.132243 0.782970
vt 0.128568 0.805596
vt 0.130943 0.834526
vt 0.121425 0.770274
vt 0.134143 0.838762
vt 0.141222 0.835630
vt 0.139542 0.858742
vt 0.143092 0.798094
vt 0.152710 0.860967
vt 0.164532 0.852256
vt 0.169881 0.826622
vt 0.174372 0.807398
vt 0.177716 0.787002
vt 0.150749 0.787865
vt 0.119557 0.743076
vt 0.126500 0.765408
vt 0.139136 0.768872
vt 0.164090 0.804144
vt 0.158526 0.777407
vt 0.157908 0.831251
vt 0.164167 0.739856
vt 0.160521 0.676756
vt 0.159364 0.710300
vt 0.170086 0.701993
vt 0.150771 0.662950
vt 0.140288 0.653054
vt 0.129292 0.745058
vt 0.125721 0.696254
vt 0.122976 0.693494
vt 0.118721 0.709168
vt 0.148112 0.780368
vt 0.151437 0.728073
vt 0.175498 0.761164
vt 0.173769 0.819864
vt 0.175247 0.696572
vt 0.168937 0.660767
vt 0.163109 0.652946
vt 0.155906 0.628534
vt 0.127933 0.639087
vt 0.124139 0.626211
vt 0.124176 0.635677
vt 0.136213 0.636525
vt 0.148938 0.628615
vt 0.128611 0.624944
vt 0.139001 0.663721
vt 0.142855 0.698644
vt 0.152263 0.566076
vt 0.156766 0.608749
vt 0.163982 0.620592
vt 0.161421 0.656955
vt 0.147337 0.652499
vt 0.173747 0.611631
vt 0.173726 0.640238
vt 0.130378 0.710862
vt 0.141338 0.682923
vt 0.162667 0.578085
vt 0.179243 0.726055
vt 0.169992 0.684498
vt 0.164458 0.707024
vt 0.181290 0.643237
vt 0.187204 0.707005
vt 0.183142 0.654911
vt 0.188116 0.715965
vt 0.189983 0.785123
vt 0.150209 0.572135
vt 0.153255 0.623728
vt 0.142166 0.610531
vt 0.164370 0.657355
vt 0.163654 0.608945
vt 0.127983 0.587991
vt 0.124159 0.633040
vt 0.117022 0.683776
vt 0.144423 0.783366
vt 0.138430 0.739373
vt 0.131777 0.795259
vt 0.157324 0.736942
vt 0.157727 0.791226
vt 0.179912 0.669468
vt 0.186790 0.738792
vt 0.175921 0.702009
vt 0.175810 0.814570
vt 0.178534 0.867784
vt 0.184005 0.805110
vt 0.162705 0.876139
vt 0.174758 0.850218
vt 0.172417 0.898420
vt 0.144869 0.933263
vt 0.135204 0.871171
vt 0.139232 0.855461
vt 0.129818 0.911471
vt 0.121134 0.882013
vt 0.114844 0.826373
vt 0.124366 0.902137
vt 0.140420 0.935952
vt 0.147020 0.940694
vt 0.127989 0.863142
vt 0.136568 0.909555
vt 0.131863 0.797898
vt 0.150617 0.895453
vt 0.153738 0.940303
vt 0.156522 0.898681
vt 0.157651 0.817183
vt 0.182029 0.859673
vt 0.165019 0.922188
vt 0.187682 0.813039
vt 0.162745 0.922069
vt 0.154912 0.929039
vt 0.162368 0.874905
vt 0.170751 0.892697
vt 0.169982 0.858591
vt 0.153561 0.896983
vt 0.133361 0.912589
vt 0.142073 0.899943
vt 0.142073 0.899944
vt 0.115948 0.843244
vt 0.112822 0.744179
vt 0.117915 0.794352
vt 0.123573 0.769808
vt 0.145679 0.752556
vt 0.135674 0.745610
vt 0.124969 0.713527
vt 0.135317 0.597642
vt 0.159956 0.729980
vt 0.170282 0.769372
vt 0.180453 0.800781
vt 0.188823 0.784124
vt 0.150399 0.832685
vt 0.132891 0.841526
vt 0.164093 0.780309
vt 0.123713 0.848712
vt 0.127286 0.655872
vt 0.174621 0.636403
vt 0.176591 0.765851
vt 0.152862 0.695772
vt 0.118789 0.769350
vt 0.119728 0.690135
vt 0.138553 0.532470
vt 0.138550 0.545787
vt 0.128219 0.629474
vt 0.145970 0.547345
vt 0.157576 0.572085
vt 0.170261 0.599637
vt 0.141290 0.602809
vt 0.148451 0.577324
vt 0.175383 0.603116
vt 0.164097 0.593231
vt 0.161193 0.608145
vt 0.135626 0.744244
vt 0.141526 0.613874
vt 0.126825 0.677343
vt 0.129603 0.625998
vt 0.115638 0.753066
vt 0.171002 0.578643
vt 0.183894 0.575605
vt 0.181842 0.611620
vt 0.179105 0.559701
vt 0.150065 0.566961
vt 0.153826 0.579862
vt 0.166212 0.561555
vt 0.125975 0.768301
vt 0.161728 0.676820
vt 0.167398 0.715658
vt 0.178584 0.666595
vt 0.146354 0.644545
vt 0.156459 0.687999
vt 0.150597 0.768654
vt 0.187953 0.641176
vt 0.187986 0.699281
vt 0.190477 0.663090
vt 0.143663 0.637315
vt 0.131309 0.697086
vt 0.137754 0.603583
vt 0.166908 0.779145
vt 0.175513 0.720600
vt 0.182950 0.629638
vt 0.183511 0.754592
vt 0.133316 0.768599
vt 0.151966 0.734586
vt 0.121701 0.725007
vt 0.132999 0.828871
vt 0.118821 0.794855
vt 0.142302 0.870519
vt 0.154182 0.911992
vt 0.148259 0.853513
vt 0.158314 0.854607
vt 0.166960 0.900594
vt 0.166518 0.826048
vt 0.182786 0.824053
vt 0.178855 0.878862
vt 0.175534 0.884638
vt 0.168413 0.943470
vt 0.165822 0.827368
vt 0.157354 0.841377
vt 0.168469 0.850929
vt 0.137954 0.947618
vt 0.125620 0.863857
vt 0.129891 0.927710
vt 0.147474 0.935607
vt 0.150305 0.960188
vt 0.159364 0.945211
vt 0.146939 0.790376
vt 0.166059 0.935579
vt 0.178922 0.803719
vt 0.172722 0.874967
vt 0.173329 0.918402
vt 0.181429 0.823886
vt 0.165377 0.949232
vt 0.175107 0.876023
vt 0.176523 0.803700
vt 0.155268 0.943471
vt 0.160474 0.931342
vt 0.146663 0.917352
vt 0.139908 0.935076
vt 0.130367 0.903100
vt 0.167534 0.759293
vt 0.185181 0.807637
vt 0.180515 0.763775
vt 0.186697 0.779663
vt 0.183950 0.732547
vt 0.115110 0.837776
vt 0.124380 0.869104
vt 0.130091 0.863809
vt 0.118041 0.849621
vt 0.166500 0.583722
vt 0.166402 0.623599
vt 0.174547 0.627419
vt 0.164066 0.680182
vt 0.186507 0.749660
vt 0.187624 0.669937
vt 0.190210 0.721064
vt 0.116179 0.713626
vt 0.115022 0.798584
vt 0.153365 0.572845
vt 0.173113 0.566832
vt 0.186484 0.585701
vt 0.187040 0.593973
vt 0.121234 0.652899
vt 0.145619 0.572198
vt 0.153542 0.616610
vt 0.150998 0.841564
vt 0.144423 0.783366
vt 0.131932 0.882949
vt 0.155369 0.674619
vt 0.140774 0.687894
s 0
usemtl AllColors_Material
f 14/1/1 18/2/1 21/3/1 3/4/1
f 15/5/2 8/6/2 7/7/2 14/1/2
f 9/8/3 6/6/3 5/9/3 11/10/3
f 17/11/4 15/5/4 4/12/4 12/13/4
f 12/13/5 4/12/5 3/4/5 10/14/5
f 13/15/6 2/16/6 1/17/6 16/18/6
f 2/16/7 12/13/7 10/14/7 1/17/7
f 13/15/4 17/11/4 12/13/4 2/16/4
f 8/6/8 9/8/8 11/10/8 7/7/8
f 16/18/9 24/19/9 23/20/9 5/9/9
f 11/10/10 22/21/10 19/22/10 7/7/10
f 6/6/4 9/8/4 17/11/4 13/15/4
f 6/6/11 13/15/11 16/18/11 5/9/11
f 9/8/4 8/6/4 15/5/4 17/11/4
f 4/12/12 15/5/12 14/1/12 3/4/12
f 3/4/13 21/3/13 20/23/13 10/14/13
f 44/24/14 28/25/14 27/26/14 45/27/14
f 47/28/15 32/29/15 31/30/15 46/31/15
f 35/32/16 55/33/16 56/34/16 50/35/16
f 48/36/17 33/37/17 32/29/17 47/28/17
f 1/17/18 25/38/18 24/19/18 16/18/18
f 7/7/19 19/22/19 18/2/19 14/1/19
f 10/14/20 20/23/20 25/38/20 1/17/20
f 5/9/21 23/20/21 22/21/21 11/10/21
f 29/39/22 37/40/22 42/41/22 34/42/22
f 33/37/23 41/43/23 40/44/23 32/29/23
f 30/45/24 38/46/24 37/40/24 29/39/24
f 34/42/25 42/41/25 41/43/25 33/37/25
f 45/27/26 27/26/26 30/45/26 35/32/26
f 46/31/27 31/30/27 28/25/27 44/24/27
f 49/47/28 34/42/28 33/37/28 48/36/28
f 29/39/29 53/48/29 54/49/29 30/45/29
f 38/46/30 51/50/30 37/40/30
f 42/41/31 51/50/31 41/43/31
f 39/51/32 51/50/32 36/52/32
f 26/53/33 51/50/33 38/46/33
f 32/29/34 40/44/34 39/51/34 31/30/34
f 28/25/35 36/52/35 26/53/35 27/26/35
f 27/26/36 26/53/36 38/46/36 30/45/36
f 31/30/37 39/51/37 36/52/37 28/25/37
f 60/54/38 44/24/38 45/27/38 62/55/38
f 64/56/39 47/28/39 46/31/39 63/57/39
f 58/58/40 50/35/40 49/47/40 65/59/40
f 59/60/41 48/36/41 47/28/41 64/56/41
f 41/43/42 51/50/42 40/44/42
f 37/40/43 51/50/43 42/41/43
f 40/44/44 51/50/44 39/51/44
f 36/52/45 51/50/45 26/53/45
f 62/55/46 45/27/46 35/32/46 61/61/46
f 63/57/47 46/31/47 44/24/47 60/54/47
f 65/59/48 49/47/48 48/36/48 59/60/48
f 61/61/49 35/32/49 50/35/49 58/58/49
f 54/49/50 57/62/50 55/33/50
f 53/48/51 57/62/51 54/49/51
f 49/47/52 43/63/52 52/64/52 34/42/52
f 34/42/53 52/64/53 53/48/53 29/39/53
f 30/45/54 54/49/54 55/33/54 35/32/54
f 50/35/55 56/34/55 43/63/55 49/47/55
f 55/33/56 57/62/56 56/34/56
f 43/63/57 57/62/57 52/64/57
f 52/64/58 57/62/58 53/48/58
f 56/34/59 57/62/59 43/63/59
f 21/3/60 61/61/60 58/58/60 20/23/60
f 59/60/61 98/65/61 100/66/61 65/59/61
f 23/20/62 67/67/62 66/68/62 22/21/62
f 18/2/63 62/55/63 61/61/63 21/3/63
f 24/19/64 95/69/64 97/70/64 23/20/64
f 20/23/65 58/58/65 65/59/65 25/38/65
f 19/22/66 68/71/66 69/72/66 60/54/66
f 19/22/67 60/54/67 62/55/67 18/2/67
f 71/73/68 77/74/68 73/75/68 67/67/68
f 70/76/69 76/77/69 77/74/69 71/73/69
f 63/57/70 70/76/70 71/73/70 64/56/70
f 22/21/71 66/68/71 68/71/71 19/22/71
f 60/54/72 69/72/72 70/76/72 63/57/72
f 64/56/73 71/73/73 67/67/73 23/20/73
f 72/78/74 78/79/74 80/80/74 74/81/74
f 75/82/75 81/83/75 82/84/75 76/77/75
f 69/72/76 85/85/76 87/86/76 75/82/76
f 67/67/77 91/87/77 90/88/77 66/68/77
f 69/72/78 75/82/78 76/77/78 70/76/78
f 66/68/79 72/78/79 74/81/79 68/71/79
f 83/89/80 84/90/80 79/91/80
f 82/84/81 84/90/81 83/89/81
f 76/77/82 82/84/82 83/89/82 77/74/82
f 77/74/83 83/89/83 79/91/83 73/75/83
f 74/81/84 80/80/84 81/83/84 75/82/84
f 73/75/85 79/91/85 78/79/85 72/78/85
f 80/80/86 84/90/86 81/83/86
f 79/91/87 84/90/87 78/79/87
f 81/83/88 84/90/88 82/84/88
f 78/79/89 84/90/89 80/80/89
f 85/85/90 89/92/90 87/86/90
f 68/71/91 86/93/91 85/85/91 69/72/91
f 74/81/92 88/94/92 86/93/92 68/71/92
f 75/82/93 87/86/93 88/94/93 74/81/93
f 86/93/94 89/92/94 85/85/94
f 88/94/95 89/92/95 86/93/95
f 87/86/96 89/92/96 88/94/96
f 92/95/97 94/96/97 93/97/97
f 73/75/98 93/97/98 91/87/98 67/67/98
f 72/78/99 92/95/99 93/97/99 73/75/99
f 66/68/100 90/88/100 92/95/100 72/78/100
f 93/97/101 94/96/101 91/87/101
f 91/87/102 94/96/102 90/88/102
f 90/88/103 94/96/103 92/95/103
f 111/98/104 103/99/104 105/100/104 110/101/104
f 109/102/105 104/103/105 106/104/105 108/105/105
f 65/59/106 100/66/106 96/106/106 25/38/106
f 64/56/107 99/107/107 98/65/107 59/60/107
f 25/38/108 96/106/108 95/69/108 24/19/108
f 23/20/109 97/70/109 99/107/109 64/56/109
f 106/104/110 107/108/110 102/109/110
f 105/100/111 107/108/111 104/103/111
f 112/110/112 101/111/112 103/99/112 111/98/112
f 110/101/113 105/100/113 104/103/113 109/102/113
f 108/105/114 106/104/114 102/109/114 113/112/114
f 113/112/115 102/109/115 101/111/115 112/110/115
f 102/109/116 107/108/116 101/111/116
f 104/103/117 107/108/117 106/104/117
f 103/99/118 107/108/118 105/100/118
f 101/111/119 107/108/119 103/99/119
f 96/106/120 113/112/120 112/110/120 95/69/120
f 108/105/121 116/113/121 115/114/121 100/66/121
f 99/107/122 110/101/122 109/102/122 98/65/122
f 95/69/123 112/110/123 111/98/123 97/70/123
f 98/65/124 109/102/124 108/105/124 100/66/124
f 97/70/125 111/98/125 110/101/125 99/107/125
f 117/115/126 118/116/126 116/113/126
f 113/112/127 117/115/127 116/113/127 108/105/127
f 96/106/128 114/117/128 117/115/128 113/112/128
f 100/66/129 115/114/129 114/117/129 96/106/129
f 116/113/130 118/116/130 115/114/130
f 114/117/131 118/116/131 117/115/131
f 115/114/132 118/116/132 114/117/132
f 141/118/133 140/119/133 315/120/133
f 192/121/134 347/122/134 346/123/134
f 140/119/135 345/124/135 340/125/135
f 189/126/136 313/127/136 312/128/136
f 340/125/137 314/129/137 315/120/137
f 338/130/138 318/131/138 342/132/138
f 124/133/139 318/131/139 338/130/139
f 177/134/140 142/135/140 314/129/140
f 316/136/141 143/137/141 191/138/141
f 175/139/142 316/136/142 339/140/142
f 317/141/143 320/142/143 119/143/143
f 337/144/144 321/145/144 173/146/144
f 332/147/145 322/148/145 144/149/145
f 146/150/146 149/151/146 147/152/146
f 163/153/147 324/154/147 167/155/147
f 166/156/148 165/157/148 171/158/148
f 163/153/149 325/159/149 164/160/149
f 325/159/150 326/161/150 330/162/150
f 325/159/151 163/153/151 326/161/151
f 164/160/152 151/163/152 163/153/152
f 158/164/153 151/163/153 166/156/153
f 145/165/154 151/163/154 158/164/154
f 333/166/155 327/167/155 125/168/155
f 328/169/156 327/167/156 150/170/156
f 148/171/157 168/172/157 328/169/157
f 147/152/158 149/151/158 157/173/158
f 168/172/159 149/151/159 162/174/159
f 169/175/160 162/174/160 146/150/160
f 329/176/161 169/175/161 330/162/161
f 160/177/162 169/175/162 146/150/162
f 330/162/163 170/178/163 164/160/163
f 164/160/164 170/178/164 165/157/164
f 325/159/165 330/162/165 164/160/165
f 161/179/166 159/180/166 120/181/166
f 171/158/167 332/147/167 166/156/167
f 332/147/168 171/158/168 122/182/168
f 173/146/169 172/183/169 145/165/169
f 324/154/170 172/183/170 125/168/170
f 125/168/171 321/145/171 124/133/171
f 321/145/172 125/168/172 173/146/172
f 172/183/173 173/146/173 125/168/173
f 124/133/174 333/166/174 125/168/174
f 327/167/175 333/166/175 150/170/175
f 320/142/176 174/184/176 334/185/176
f 148/171/177 174/184/177 157/173/177
f 148/171/178 334/185/178 174/184/178
f 175/139/179 147/152/179 143/137/179
f 175/139/180 146/150/180 147/152/180
f 146/150/181 175/139/181 335/186/181
f 339/140/182 335/186/182 175/139/182
f 177/134/183 336/187/183 156/188/183
f 336/187/184 176/189/184 156/188/184
f 176/189/185 336/187/185 177/134/185
f 314/129/186 159/180/186 177/134/186
f 177/134/187 159/180/187 176/189/187
f 158/164/188 178/190/188 145/165/188
f 178/190/189 158/164/189 332/147/189
f 145/165/190 178/190/190 173/146/190
f 179/191/191 180/192/191 319/193/191
f 178/190/192 180/192/192 173/146/192
f 155/194/193 337/144/193 180/192/193
f 321/145/194 337/144/194 341/195/194
f 334/185/195 181/196/195 320/142/195
f 150/170/196 181/196/196 334/185/196
f 181/196/197 182/197/197 320/142/197
f 182/197/198 338/130/198 342/132/198
f 157/173/199 143/137/199 147/152/199
f 183/198/200 123/199/200 191/138/200
f 184/200/201 160/177/201 335/186/201
f 184/200/202 186/201/202 156/188/202
f 187/202/203 120/181/203 314/129/203
f 120/181/204 122/182/204 331/203/204
f 140/119/205 347/122/205 192/121/205 345/124/205
f 322/148/206 340/125/206 152/204/206
f 122/182/207 187/202/207 340/125/207
f 340/125/208 322/148/208 122/182/208
f 344/205/209 319/193/209 144/149/209
f 344/205/210 188/206/210 319/193/210
f 179/191/211 121/207/211 189/126/211
f 188/206/212 121/207/212 179/191/212
f 341/195/213 155/194/213 189/126/213
f 337/144/214 155/194/214 341/195/214
f 189/126/215 155/194/215 179/191/215
f 312/128/216 342/132/216 189/126/216
f 190/208/217 342/132/217 312/128/217
f 154/209/218 119/143/218 190/208/218
f 190/208/219 182/197/219 342/132/219
f 190/208/220 119/143/220 182/197/220
f 119/143/221 343/210/221 317/141/221
f 340/125/222 344/205/222 152/204/222
f 188/206/223 344/205/223 121/207/223
f 152/204/224 344/205/224 144/149/224
f 345/124/225 344/205/225 340/125/225
f 194/211/226 153/212/226 346/123/226
f 153/212/227 194/211/227 312/128/227
f 192/121/228 153/212/228 121/207/228
f 311/213/229 193/214/229 316/136/229
f 316/136/230 193/214/230 185/215/230
f 194/211/231 193/214/231 311/213/231
f 346/123/232 193/214/232 194/211/232
f 193/214/233 347/122/233 185/215/233
f 346/123/234 347/122/234 193/214/234
f 185/215/235 347/122/235 186/201/235
f 246/216/236 211/217/236 348/218/236
f 252/219/237 211/217/237 195/220/237
f 348/218/238 211/217/238 252/219/238
f 250/221/239 348/218/239 210/222/239
f 127/223/240 196/224/240 195/220/240
f 197/225/241 246/216/241 348/218/241
f 199/226/242 382/227/242 241/228/242
f 213/229/243 375/230/243 379/231/243
f 202/232/244 375/230/244 236/233/244
f 214/234/245 198/235/245 126/236/245
f 240/237/246 198/235/246 248/238/246
f 377/239/247 349/240/247 129/241/247
f 350/242/248 217/243/248 242/244/248
f 218/245/249 350/242/249 200/246/249
f 199/226/250 375/230/250 376/247/250
f 379/231/251 351/248/251 219/249/251
f 351/248/252 202/232/252 236/233/252
f 372/250/253 353/251/253 371/252/253
f 359/253/254 207/254/254 229/255/254
f 355/256/255 209/257/255 354/258/255
f 226/259/256 208/260/256 232/261/256
f 224/262/257 226/259/257 366/263/257
f 355/256/258 364/264/258 366/263/258
f 366/263/259 226/259/259 355/256/259
f 356/265/260 226/259/260 232/261/260
f 227/266/261 226/259/261 356/265/261
f 209/257/262 356/265/262 370/267/262
f 227/266/263 209/257/263 355/256/263
f 358/268/264 357/269/264 355/256/264
f 228/270/265 357/269/265 358/268/265
f 358/268/266 354/258/266 360/271/266
f 361/272/267 229/255/267 207/254/267
f 229/255/268 225/273/268 359/253/268
f 361/272/269 207/254/269 223/274/269
f 361/272/270 353/251/270 229/255/270
f 229/255/271 362/275/271 225/273/271
f 365/276/272 362/275/272 130/277/272
f 225/273/273 362/275/273 357/269/273
f 363/278/274 230/279/274 130/277/274
f 364/264/275 365/276/275 130/277/275
f 362/275/276 365/276/276 357/269/276
f 352/280/277 364/264/277 130/277/277
f 367/281/278 366/263/278 231/282/278
f 231/283/279 366/263/279 352/280/279
f 224/262/280 368/284/280 208/260/280
f 232/261/281 208/260/281 368/284/281
f 233/285/282 232/261/282 368/284/282
f 369/286/283 232/261/283 129/241/283
f 220/287/284 369/286/284 129/241/284
f 369/286/285 356/265/285 232/261/285
f 234/288/286 370/267/286 204/289/286
f 204/289/287 370/267/287 205/290/287
f 354/258/288 234/288/288 360/271/288
f 126/236/289 204/289/289 221/291/289
f 234/288/290 204/289/290 126/236/290
f 374/292/291 234/288/291 198/235/291
f 360/271/292 374/292/292 239/293/292
f 219/249/293 235/294/293 239/293/293
f 235/294/294 351/248/294 223/274/294
f 351/248/295 235/294/295 219/249/295
f 236/233/296 223/274/296 351/248/296
f 223/274/297 236/233/297 203/295/297
f 206/296/298 238/297/298 352/280/298
f 200/246/299 206/296/299 201/298/299
f 350/242/300 206/296/300 200/246/300
f 242/244/301 238/297/301 350/242/301
f 367/281/302 216/299/302 224/262/302
f 205/290/303 220/287/303 129/241/303
f 204/289/304 205/290/304 221/291/304
f 349/240/305 373/300/305 129/241/305
f 240/237/306 374/292/306 198/235/306
f 378/301/307 219/249/307 248/238/307
f 203/295/308 375/230/308 199/226/308
f 213/229/309 376/247/309 375/230/309
f 201/298/310 372/250/310 237/302/310
f 241/228/311 218/245/311 201/298/311
f 201/298/312 218/245/312 200/246/312
f 212/303/313 218/245/313 241/228/313
f 216/299/314 238/297/314 242/244/314
f 368/284/315 216/299/315 243/304/315
f 243/304/316 216/299/316 242/244/316
f 244/305/317 233/285/317 243/304/317
f 233/285/318 244/305/318 129/241/318
f 368/284/319 243/304/319 233/285/319
f 377/239/320 245/306/320 215/307/320
f 380/308/321 377/239/321 129/241/321
f 215/307/322 245/306/322 247/309/322
f 214/234/323 247/309/323 128/310/323
f 214/234/324 128/310/324 198/235/324
f 198/235/325 128/310/325 248/238/325
f 248/238/326 128/310/326 249/311/326
f 213/229/327 250/221/327 210/222/327
f 250/221/328 213/229/328 379/231/328
f 376/247/329 213/229/329 210/222/329
f 127/223/330 380/308/330 244/305/330
f 377/239/331 251/312/331 381/313/331
f 195/220/332 251/312/332 127/223/332
f 195/220/333 211/217/333 251/312/333
f 382/227/334 252/219/334 241/228/334
f 376/247/335 210/222/335 382/227/335
f 348/218/336 252/219/336 210/222/336
f 212/303/337 196/224/337 217/243/337
f 252/219/338 195/220/338 241/228/338
f 306/314/339 265/315/339 309/316/339
f 269/317/340 310/318/340 383/319/340
f 383/319/341 308/320/341 254/321/341
f 265/315/342 306/314/342 253/322/342
f 407/323/343 253/322/343 132/324/343
f 133/325/344 253/322/344 407/323/344
f 253/322/345 302/326/345 264/327/345
f 303/328/346 253/322/346 133/325/346
f 383/319/347 255/329/347 269/317/347
f 256/330/348 385/331/348 298/332/348
f 412/333/349 299/334/349 256/330/349
f 256/330/350 299/334/350 403/335/350
f 408/336/351 402/337/351 297/338/351
f 134/339/352 258/340/352 307/341/352
f 137/342/353 385/331/353 256/330/353
f 290/343/354 384/344/354 271/345/354
f 286/346/355 258/340/355 272/347/355
f 387/348/356 285/349/356 405/350/356
f 292/351/357 261/352/357 276/353/357
f 138/354/358 262/355/358 399/356/358
f 259/357/359 389/358/359 393/359/359
f 393/359/360 389/358/360 131/360/360
f 260/361/361 263/362/361 272/347/361
f 263/362/362 260/361/362 281/363/362
f 280/364/363 395/365/363 285/349/363
f 395/365/364 280/364/364 274/366/364
f 280/364/365 279/367/365 139/368/365
f 281/363/366 390/369/366 279/367/366
f 139/368/367 390/369/367 131/360/367
f 263/362/368 280/364/368 285/349/368
f 279/367/369 263/362/369 281/363/369
f 287/370/370 263/362/370 285/349/370
f 391/371/371 390/369/371 281/363/371
f 391/371/372 393/359/372 131/360/372
f 291/372/373 392/373/373 281/363/373
f 393/359/374 291/372/374 259/357/374
f 389/358/375 282/374/375 131/360/375
f 282/374/376 389/358/376 398/375/376
f 278/376/377 282/374/377 262/355/377
f 262/355/378 282/374/378 283/377/378
f 398/375/379 283/377/379 282/374/379
f 257/378/380 283/377/380 398/375/380
f 278/376/381 277/379/381 131/360/381
f 261/352/382 262/355/382 138/354/382
f 284/380/383 261/352/383 277/379/383
f 276/353/384 261/352/384 138/354/384
f 261/352/385 388/381/385 277/379/385
f 394/382/386 139/368/386 277/379/386
f 394/382/387 277/379/387 388/381/387
f 275/383/388 394/382/388 388/381/388
f 275/383/389 274/366/389 394/382/389
f 285/349/390 286/346/390 287/370/390
f 272/347/391 287/370/391 286/346/391
f 260/361/392 288/384/392 281/363/392
f 272/347/393 288/384/393 260/361/393
f 271/345/394 291/372/394 290/343/394
f 389/358/395 396/385/395 398/375/395
f 270/386/396 397/387/396 136/388/396
f 270/386/397 398/375/397 397/387/397
f 137/342/398 257/378/398 270/386/398
f 257/378/399 137/342/399 399/356/399
f 403/335/400 399/356/400 256/330/400
f 135/389/401 293/390/401 400/391/401
f 275/383/402 400/391/402 293/390/402
f 135/389/403 275/383/403 293/390/403
f 274/366/404 275/383/404 300/392/404
f 268/393/405 401/394/405 134/339/405
f 401/394/406 268/393/406 289/395/406
f 273/396/407 401/394/407 289/395/407
f 295/397/408 271/345/408 296/398/408
f 295/397/409 396/385/409 259/357/409
f 384/344/410 296/398/410 271/345/410
f 296/398/411 297/338/411 295/397/411
f 295/397/412 297/338/412 386/399/412
f 270/386/413 136/388/413 137/342/413
f 292/351/414 276/353/414 269/317/414
f 269/317/415 276/353/415 403/335/415
f 403/335/416 299/334/416 412/333/416
f 395/365/417 300/392/417 405/350/417
f 275/383/418 135/389/418 300/392/418
f 266/400/419 301/401/419 135/389/419
f 300/392/420 301/401/420 405/350/420
f 387/348/421 266/400/421 258/340/421
f 303/328/422 406/402/422 302/326/422
f 302/326/423 406/402/423 307/341/423
f 134/339/424 406/402/424 303/328/424
f 267/403/425 303/328/425 133/325/425
f 289/395/426 268/393/426 267/403/426
f 303/328/427 268/393/427 134/339/427
f 407/323/428 304/404/428 133/325/428
f 305/405/429 407/323/429 132/324/429
f 304/404/430 407/323/430 305/405/430
f 408/336/431 297/338/431 305/405/431
f 408/336/432 132/324/432 298/332/432
f 254/321/433 409/406/433 266/400/433
f 258/340/434 266/400/434 307/341/434
f 308/320/435 409/406/435 254/321/435
f 309/316/436 265/315/436 410/407/436
f 306/314/437 309/316/437 298/332/437
f 256/330/438 411/408/438 412/333/438
f 256/330/439 309/316/439 411/408/439
f 310/318/440 411/408/440 309/316/440
f 310/318/441 412/333/441 411/408/441
f 142/135/442 141/118/442 315/120/442
f 311/213/443 154/209/443 190/208/443 312/128/443
f 194/211/444 311/213/444 312/128/444
f 170/178/445 330/162/445 169/175/445 323/409/445
f 312/128/446 313/127/446 153/212/446
f 189/126/447 121/207/447 313/127/447
f 153/212/448 313/127/448 121/207/448
f 315/120/449 314/129/449 142/135/449
f 187/202/450 314/129/450 340/125/450
f 140/119/451 340/125/451 315/120/451
f 339/140/452 316/136/452 185/215/452
f 191/138/453 123/199/453 317/141/453
f 320/142/454 317/141/454 123/199/454
f 341/195/455 318/131/455 321/145/455
f 124/133/456 321/145/456 318/131/456
f 179/191/457 319/193/457 188/206/457
f 332/147/458 144/149/458 319/193/458
f 156/188/459 142/135/459 177/134/459
f 175/139/460 143/137/460 316/136/460
f 174/184/461 320/142/461 123/199/461
f 184/200/462 176/189/462 323/409/462
f 151/163/463 145/165/463 172/183/463 324/154/463
f 170/178/464 323/409/464 176/189/464
f 149/151/465 146/150/465 162/174/465
f 334/185/466 148/171/466 150/170/466
f 328/169/467 150/170/467 148/171/467
f 161/179/468 120/181/468 331/203/468 171/158/468
f 163/153/469 151/163/469 324/154/469
f 165/157/470 166/156/470 151/163/470 164/160/470
f 161/179/471 171/158/471 165/157/471
f 167/155/472 324/154/472 125/168/472 327/167/472
f 167/155/473 326/161/473 163/153/473
f 327/167/474 328/169/474 326/161/474 167/155/474
f 148/171/475 157/173/475 149/151/475 168/172/475
f 162/174/476 329/176/476 328/169/476
f 162/174/477 328/169/477 168/172/477
f 326/161/478 328/169/478 329/176/478
f 178/190/479 332/147/479 319/193/479 180/192/479
f 330/162/480 326/161/480 329/176/480
f 329/176/481 162/174/481 169/175/481
f 184/200/482 323/409/482 160/177/482
f 169/175/483 160/177/483 323/409/483
f 161/179/484 170/178/484 176/189/484
f 165/157/485 170/178/485 161/179/485
f 176/189/486 159/180/486 161/179/486
f 122/182/487 171/158/487 331/203/487
f 322/148/488 332/147/488 122/182/488
f 166/156/489 332/147/489 158/164/489
f 124/133/490 150/170/490 333/166/490
f 123/199/491 157/173/491 174/184/491
f 146/150/492 335/186/492 160/177/492
f 314/129/493 120/181/493 159/180/493
f 345/124/494 192/121/494 121/207/494 344/205/494
f 179/191/495 155/194/495 180/192/495
f 180/192/496 337/144/496 173/146/496
f 124/133/497 181/196/497 150/170/497
f 124/133/498 338/130/498 181/196/498
f 181/196/499 338/130/499 182/197/499
f 119/143/500 320/142/500 182/197/500
f 157/173/501 123/199/501 143/137/501
f 143/137/502 123/199/502 183/198/502
f 143/137/503 183/198/503 191/138/503
f 339/140/504 184/200/504 335/186/504
f 156/188/505 176/189/505 184/200/505
f 186/201/506 339/140/506 185/215/506
f 184/200/507 339/140/507 186/201/507
f 141/118/508 142/135/508 186/201/508
f 142/135/509 156/188/509 186/201/509
f 187/202/510 122/182/510 120/181/510
f 144/149/511 322/148/511 152/204/511
f 189/126/512 342/132/512 341/195/512
f 318/131/513 341/195/513 342/132/513
f 119/143/514 154/209/514 343/210/514
f 311/213/515 343/210/515 154/209/515
f 191/138/516 343/210/516 311/213/516
f 317/141/517 343/210/517 191/138/517
f 246/216/518 197/225/518 128/310/518 247/309/518
f 192/121/519 346/123/519 153/212/519
f 316/136/520 191/138/520 311/213/520
f 186/201/521 347/122/521 141/118/521
f 141/118/522 347/122/522 140/119/522
f 217/243/523 196/224/523 127/223/523
f 348/218/524 250/221/524 249/311/524
f 348/218/525 249/311/525 197/225/525
f 130/277/526 201/298/526 206/296/526 352/280/526
f 381/313/527 246/216/527 245/306/527
f 243/304/528 217/243/528 127/223/528
f 242/244/529 217/243/529 243/304/529
f 237/302/530 199/226/530 241/228/530
f 379/231/531 202/232/531 351/248/531
f 379/231/532 375/230/532 202/232/532
f 217/243/533 350/410/533 218/245/533
f 382/227/534 199/226/534 376/247/534
f 234/288/535 126/236/535 198/235/535
f 232/261/536 233/285/536 129/241/536
f 228/270/537 358/268/537 360/271/537 359/253/537
f 370/267/538 354/258/538 209/257/538
f 224/262/539 208/260/539 226/259/539
f 364/264/540 355/256/540 357/269/540
f 227/266/541 355/256/541 226/259/541
f 227/266/542 356/265/542 209/257/542
f 228/270/543 225/273/543 357/269/543
f 359/253/544 225/273/544 228/270/544
f 355/256/545 354/258/545 358/268/545
f 359/253/546 360/271/546 239/293/546 207/254/546
f 361/272/547 223/274/547 203/295/547 371/252/547
f 353/251/548 372/250/548 230/279/548 363/278/548
f 371/252/549 353/251/549 361/272/549
f 363/278/550 362/275/550 229/255/550
f 229/255/551 353/251/551 363/278/551
f 220/287/552 370/267/552 356/265/552 369/286/552
f 362/275/553 363/278/553 130/277/553
f 357/269/554 365/276/554 364/264/554
f 352/280/555 366/263/555 364/264/555
f 222/411/556 367/281/556 231/282/556
f 366/263/557 367/281/557 224/262/557
f 203/295/558 199/226/558 237/302/558 371/252/558
f 354/258/559 370/267/559 234/288/559
f 374/292/560 360/271/560 234/288/560
f 207/254/561 235/294/561 223/274/561
f 239/293/562 235/294/562 207/254/562
f 238/297/563 222/411/563 231/282/563 352/280/563
f 372/250/564 371/252/564 237/302/564
f 372/250/565 201/298/565 230/279/565
f 130/277/566 230/279/566 201/298/566
f 350/242/567 238/297/567 206/296/567
f 373/300/568 349/240/568 215/307/568 221/291/568
f 238/297/569 216/299/569 222/411/569
f 367/281/570 222/411/570 216/299/570
f 220/287/571 205/290/571 370/267/571
f 129/241/572 373/300/572 205/290/572
f 215/307/573 214/234/573 126/236/573 221/291/573
f 221/291/574 205/290/574 373/300/574
f 374/292/575 240/237/575 219/249/575
f 248/238/576 219/249/576 240/237/576
f 239/293/577 374/292/577 219/249/577
f 375/230/578 203/295/578 236/233/578
f 237/302/579 241/228/579 201/298/579
f 212/303/580 217/243/580 218/245/580
f 224/262/581 216/299/581 368/284/581
f 244/305/582 243/304/582 127/223/582
f 381/313/583 245/306/583 377/239/583
f 215/307/584 349/240/584 377/239/584
f 247/309/585 245/306/585 246/216/585
f 214/234/586 215/307/586 247/309/586
f 378/301/587 249/311/587 250/221/587 379/231/587
f 249/311/588 128/310/588 197/225/588
f 378/301/589 248/238/589 249/311/589
f 219/249/590 378/301/590 379/231/590
f 254/321/591 135/389/591 400/391/591 255/329/591
f 377/239/592 380/308/592 251/312/592
f 129/241/593 244/305/593 380/308/593
f 251/312/594 380/308/594 127/223/594
f 251/312/595 211/217/595 381/313/595
f 246/216/596 381/313/596 211/217/596
f 382/227/597 210/222/597 252/219/597
f 241/228/598 195/220/598 212/303/598
f 195/220/599 196/224/599 212/303/599
f 253/322/600 264/327/600 265/315/600
f 308/320/601 383/319/601 310/318/601
f 253/322/602 306/314/602 132/324/602
f 303/328/603 302/326/603 253/322/603
f 383/319/604 254/321/604 255/329/604
f 408/336/605 298/332/605 402/337/605
f 304/404/606 384/344/606 289/395/606
f 296/398/607 384/344/607 304/404/607
f 272/347/608 258/340/608 134/339/608
f 402/337/609 136/388/609 397/387/609 386/399/609
f 292/351/610 269/317/610 255/329/610
f 402/337/611 386/399/611 297/338/611
f 283/377/612 257/378/612 399/356/612 262/355/612
f 290/343/613 289/395/613 384/344/613
f 286/346/614 387/348/614 258/340/614
f 285/349/615 387/348/615 286/346/615
f 292/351/616 388/381/616 261/352/616
f 288/384/617 273/396/617 289/395/617 290/343/617
f 279/367/618 390/369/618 139/368/618
f 279/367/619 280/364/619 263/362/619
f 131/360/620 390/369/620 391/371/620
f 281/363/621 392/373/621 391/371/621
f 391/371/622 392/373/622 393/359/622
f 291/372/623 393/359/623 392/373/623
f 278/376/624 131/360/624 282/374/624
f 284/380/625 277/379/625 278/376/625
f 278/376/626 262/355/626 284/380/626
f 261/352/627 284/380/627 262/355/627
f 131/360/628 277/379/628 139/368/628
f 280/364/629 139/368/629 394/382/629
f 280/364/630 394/382/630 274/366/630
f 405/350/631 285/349/631 395/365/631
f 300/392/632 395/365/632 274/366/632
f 263/362/633 287/370/633 272/347/633
f 291/372/634 281/363/634 288/384/634 290/343/634
f 400/391/635 275/383/635 388/381/635 292/351/635
f 259/357/636 291/372/636 271/345/636
f 259/357/637 396/385/637 389/358/637
f 386/399/638 397/387/638 396/385/638
f 396/385/639 397/387/639 398/375/639
f 403/335/640 138/354/640 399/356/640
f 256/330/641 399/356/641 137/342/641
f 403/335/642 276/353/642 138/354/642
f 294/412/643 273/396/643 288/384/643 272/347/643
f 255/329/644 400/391/644 292/351/644
f 385/331/645 137/342/645 136/388/645 298/332/645
f 134/339/646 294/412/646 272/347/646
f 134/339/647 401/394/647 294/412/647
f 294/412/648 401/394/648 273/396/648
f 386/399/649 396/385/649 295/397/649
f 259/357/650 271/345/650 295/397/650
f 304/404/651 297/338/651 296/398/651
f 305/405/652 297/338/652 304/404/652
f 398/375/653 270/386/653 257/378/653
f 136/388/654 402/337/654 298/332/654
f 308/320/655 410/407/655 302/326/655 307/341/655
f 404/413/656 403/335/656 412/333/656
f 403/335/657 404/413/657 269/317/657
f 301/401/658 300/392/658 135/389/658
f 254/321/659 266/400/659 135/389/659
f 266/400/660 387/348/660 405/350/660
f 301/401/661 266/400/661 405/350/661
f 134/339/662 307/341/662 406/402/662
f 303/328/663 267/403/663 268/393/663
f 267/403/664 133/325/664 304/404/664
f 267/403/665 304/404/665 289/395/665
f 132/324/666 408/336/666 305/405/666
f 298/332/667 132/324/667 306/314/667
f 307/341/668 266/400/668 409/406/668
f 310/318/669 410/407/669 308/320/669
f 310/318/670 269/317/670 404/413/670 412/333/670
f 307/341/671 409/406/671 308/320/671
f 264/327/672 410/407/672 265/315/672
f 310/318/673 309/316/673 410/407/673
f 302/326/674 410/407/674 264/327/674
f 256/330/675 298/332/675 309/316/675
